<svg width="212" height="219" fill="none" xmlns="http://www.w3.org/2000/svg"><circle cx="100" cy="119" r="99.5" stroke="#EDEDED"/><path d="M169.267 1.04c-.715-.065-1.3.422-1.885.909l-26.342 31.84c-.813 1.006-.748 2.274.064 3.25l24.037 28.872c-2.373.324-5.006 1.525-7.152 3.312-5.462 4.548-6.831 11.632-3.258 15.924 3.574 4.292 10.789 4.23 16.251-.317 5.463-4.548 6.831-11.632 3.258-15.924l-19.815-23.8 23.09-27.811 13.968 16.777c-2.373.324-5.006 1.525-7.152 3.312-5.463 4.547-6.831 11.632-3.258 15.924 3.573 4.292 10.788 4.23 16.251-.317 5.462-4.548 6.831-11.632 3.258-15.924L171.347 1.95c-.487-.585-1.17-1.008-2.08-.911Zm-18.09 40.163-4.872-5.852 23.089-27.81 4.873 5.852-23.09 27.81Z" fill="#EDEDED"/></svg>