<svg width="205" height="215" fill="none" xmlns="http://www.w3.org/2000/svg"><circle cx="100" cy="114.225" r="99.5" stroke="#EDEDED"/><path d="M169.904.955c-.695-.177-1.35.212-2.005.6l-31.03 27.29c-.961.867-1.098 2.13-.449 3.22l19.187 32.3c-2.395-.053-5.184.718-7.585 2.144-6.111 3.63-8.579 10.41-5.726 15.212 2.852 4.801 9.987 5.878 16.097 2.248 6.111-3.63 8.579-10.41 5.727-15.212L148.304 42.13l27.183-23.824 11.15 18.769c-2.395-.054-5.184.717-7.585 2.143-6.111 3.63-8.579 10.41-5.726 15.212 2.852 4.801 9.987 5.878 16.097 2.248 6.111-3.63 8.579-10.41 5.727-15.212L171.815 2.183c-.389-.655-.997-1.18-1.911-1.228Zm-24.193 36.811-3.889-6.547 27.183-23.825 3.89 6.548-27.184 23.824Z" fill="#EDEDED"/></svg>