<svg width="214" height="223" fill="none" xmlns="http://www.w3.org/2000/svg"><circle cx="100" cy="123" r="99.5" stroke="#EDEDED"/><path d="M163.291 91.845c.714.07 1.303-.412 1.893-.894l26.591-31.631c.821-1 .766-2.269-.038-3.25l-23.809-29.062c2.375-.305 5.018-1.486 7.177-3.255 5.499-4.505 6.923-11.579 3.383-15.899-3.539-4.32-10.754-4.315-16.252.19-5.499 4.504-6.923 11.578-3.384 15.898l19.627 23.956-23.308 27.628-13.835-16.887c2.376-.306 5.018-1.486 7.178-3.256 5.498-4.504 6.922-11.578 3.383-15.898-3.539-4.32-10.755-4.315-16.253.19-5.498 4.504-6.922 11.578-3.383 15.898l28.957 35.345c.483.588 1.162 1.017 2.073.927Zm18.406-40.02 4.826 5.89-23.308 27.629-4.826-5.891 23.308-27.628Z" fill="#EDEDED"/></svg>