<svg width="141" height="156" fill="none" xmlns="http://www.w3.org/2000/svg"><circle cx="70.5" cy="85.5" r="70" stroke="#EDEDED"/><path d="M110.121 1.173c-.485-.123-.941.148-1.398.419l-21.627 19.02c-.67.604-.765 1.483-.313 2.244l13.373 22.512c-1.669-.038-3.613.5-5.286 1.494-4.26 2.53-5.98 7.256-3.992 10.602 1.988 3.347 6.961 4.097 11.22 1.567 4.259-2.53 5.979-7.256 3.991-10.602L95.066 29.87l18.946-16.604 7.771 13.08c-1.669-.037-3.613.5-5.286 1.495-4.259 2.53-5.979 7.255-3.992 10.602 1.988 3.346 6.961 4.096 11.22 1.567 4.259-2.53 5.979-7.256 3.991-10.603l-16.264-27.38c-.271-.456-.694-.822-1.331-.855ZM93.259 26.83l-2.71-4.563L109.493 5.66l2.711 4.563L93.259 26.83Z" fill="#EDEDED"/></svg>