<svg width="142" height="159" fill="none" xmlns="http://www.w3.org/2000/svg"><circle cx="70.5" cy="88.5" r="70" stroke="#EDEDED"/><path d="M114.16 1.103c-.493-.084-.926.223-1.359.53L92.772 22.33c-.62.655-.643 1.54-.132 2.261l15.138 21.365c-1.666.097-3.561.789-5.149 1.914-4.042 2.864-5.376 7.713-3.126 10.889 2.25 3.176 7.267 3.524 11.309.66 4.042-2.864 5.377-7.713 3.127-10.889L101.46 30.918l17.55-18.073 8.797 12.415c-1.666.096-3.561.788-5.149 1.913-4.042 2.865-5.377 7.713-3.126 10.89 2.25 3.175 7.267 3.523 11.309.66 4.042-2.865 5.377-7.714 3.126-10.89L115.556 1.85c-.307-.433-.758-.764-1.396-.746ZM99.414 28.031l-3.069-4.33 17.551-18.074 3.069 4.33-17.55 18.074Z" fill="#EDEDED"/></svg>