<svg width="151" height="153" fill="none" xmlns="http://www.w3.org/2000/svg"><circle cx="70.5" cy="82.5" r="70" stroke="#EDEDED"/><path d="M114.372 63.644c.495.074.921-.242 1.348-.557l19.606-21.098c.606-.668.612-1.553.086-2.264L119.844 18.67c1.664-.13 3.545-.86 5.109-2.017 3.984-2.945 5.22-7.82 2.906-10.95-2.314-3.13-7.337-3.376-11.32-.43-3.984 2.944-5.22 7.82-2.906 10.949l12.833 17.355-17.181 18.425-9.046-12.234c1.664-.13 3.544-.86 5.109-2.017 3.983-2.946 5.219-7.82 2.905-10.95-2.314-3.13-7.337-3.376-11.32-.431-3.983 2.945-5.22 7.82-2.906 10.95l18.934 25.606c.316.427.773.749 1.411.718Zm14.198-27.221 3.155 4.267-17.181 18.425-3.156-4.267 17.182-18.425Z" fill="#EDEDED"/></svg>