<svg width="239" height="216" fill="none" xmlns="http://www.w3.org/2000/svg"><circle cx="100" cy="116" r="99.5" stroke="#EDEDED"/><path d="M237.254 45.888c-.007-.718-.55-1.251-1.093-1.785l-34.318-23.02c-1.084-.707-2.339-.516-3.228.39l-26.319 26.809c-.56-2.329-2.019-4.828-4.012-6.785-5.072-4.979-12.258-5.63-16.17-1.646-3.913 3.985-3.129 11.158 1.943 16.138 5.072 4.98 12.258 5.63 16.171 1.646l21.696-22.1 29.983 20.188L206.613 71.3c-.559-2.329-2.019-4.828-4.011-6.784-5.072-4.98-12.258-5.631-16.171-1.646-3.912 3.985-3.128 11.158 1.944 16.137 5.072 4.98 12.258 5.631 16.171 1.646l32.01-32.605c.533-.544.886-1.265.698-2.16ZM195.48 31.913l5.335-5.435 29.984 20.188-5.335 5.434-29.984-20.187Z" fill="#EDEDED"/></svg>