<svg width="154" height="157" fill="none" xmlns="http://www.w3.org/2000/svg"><circle cx="70.5" cy="86.5" r="70" stroke="#EDEDED"/><path d="M152.951 29.98c-.035-.499-.435-.847-.836-1.195L127.268 14.22c-.783-.447-1.648-.261-2.228.407l-17.179 19.762c-.487-1.596-1.608-3.274-3.077-4.55-3.739-3.25-8.766-3.4-11.319-.463-2.553 2.938-1.705 7.895 2.034 11.145s8.765 3.4 11.319.462l14.16-16.29L142.69 37.47l-9.982 11.484c-.488-1.596-1.608-3.274-3.077-4.55-3.739-3.25-8.766-3.4-11.319-.463-2.554 2.938-1.705 7.895 2.033 11.145 3.739 3.25 8.766 3.4 11.32.462l20.892-24.035c.348-.4.563-.917.394-1.533ZM123.3 22.023l3.482-4.006 21.711 12.778-3.482 4.006L123.3 22.022Z" fill="#EDEDED"/></svg>