<svg width="50" height="50" fill="none" xmlns="http://www.w3.org/2000/svg"><g clip-path="url(#a)" stroke="#BF3991" stroke-width="2" stroke-linejoin="round"><path d="M24.5 13.985C22.227 11.098 18.722 8.212 10.036 8A1.014 1.014 0 0 0 9 9.018v24.937c0 .569.465 1.016 1.036 1.034 8.686.284 12.19 4.125 14.464 7.011m0-28.015C26.773 11.098 30.278 8.212 38.964 8A1.006 1.006 0 0 1 40 9.007v24.946c0 .57-.465 1.018-1.036 1.036-8.686.284-12.19 4.125-14.464 7.011m0-28.015V42"/><path d="M40.194 13h4.756c.58 0 1.05.463 1.05 1.033v26.948c0 .836-1.001 1.391-1.778 1.052-1.67-.73-4.456-1.622-8.104-1.622C29.94 40.41 25 44 25 44s-4.941-3.59-11.118-3.59c-3.648 0-6.435.893-8.104 1.623C5 42.373 4 41.817 4 40.98V14.033C4 13.463 4.47 13 5.05 13h4.756"/></g><defs><clipPath id="a"><path fill="#fff" d="M0 0h50v50H0z"/></clipPath></defs></svg>