<svg width="50" height="50" fill="none" xmlns="http://www.w3.org/2000/svg"><g clip-path="url(#a)" stroke="#3973BF" stroke-width="2" stroke-linecap="round" stroke-linejoin="round"><path d="M29.562 3.617a5.07 5.07 0 0 0 3.828 2.781 5.086 5.086 0 0 1 2.82 8.68 5.117 5.117 0 0 0-1.46 4.508 5.086 5.086 0 0 1-7.407 5.36 5.117 5.117 0 0 0-4.734 0 5.086 5.086 0 0 1-7.383-5.36 5.118 5.118 0 0 0-1.46-4.508 5.086 5.086 0 0 1 2.843-8.68 5.07 5.07 0 0 0 3.828-2.781 5.086 5.086 0 0 1 9.125 0ZM25 24.367V49.07"/><path d="M25 18.43a4.852 4.852 0 1 0 0-9.704 4.852 4.852 0 0 0 0 9.704ZM6.563 37.218a12.5 12.5 0 0 1 18.437 0 12.499 12.499 0 0 1-18.438 0ZM43.438 32.257a12.5 12.5 0 0 1-18.438 0 12.499 12.499 0 0 1 18.438 0ZM25 32.258h9.344M25 37.219h-8.625"/></g><defs><clipPath id="a"><path fill="#fff" d="M0 0h50v50H0z"/></clipPath></defs></svg>