<svg width="100" height="101" fill="none" xmlns="http://www.w3.org/2000/svg"><path fill-rule="evenodd" clip-rule="evenodd" d="m91.158 39.733.188.392.33.359.452.334.557.319.641.31.707.308.75.313.772.323.768.338.742.356.69.378.616.4.52.425.408.448.282.469.148.486.012.5-.12.511-.242.516-.351.517-.443.514-.516.507-.569.498-.6.487-.613.475-.607.462-.585.45-.55.44-.5.43-.444.422-.377.417-.306.414-.23.415-.15.416-.068.421.012.429.092.439.17.45.245.466.314.482.376.498.43.516.474.534.505.551.522.566.522.58.505.587.467.593.41.59.335.584.24.568.13.547.007.518-.12.485-.253.445-.38.403-.498.36-.602.317-.689.278-.754.243-.797.213-.816.192-.811.179-.785.174-.738.18-.67.194-.585.22-.481.256-.362.304-.224.364-.08.433.046.499.152.558.238.612.306.659.353.698.38.728.386.747.37.754.334.748.276.73.202.696.11.65.006.593-.104.527-.22.452-.331.376-.438.298-.534.224-.615.156-.68.096-.73.045-.76.007-.775-.02-.774-.035-.759-.038-.732-.032-.696-.016-.652.01-.601.044-.547.082-.49.128-.43.178-.37.231-.313.288-.254.346-.2.406-.149.465-.101.524-.06.58-.023.633.005.68.025.72.037.751.038.772.028.78.006.771-.027.748-.072.707-.127.649-.193.573-.264.484-.34.38-.418.271-.492.156-.563.041-.624-.066-.675-.163-.713-.247-.74-.313-.75-.358-.748-.383-.735-.386-.71-.369-.674-.33-.631-.272-.58-.193-.524-.095-.46.022-.393.16-.328.305-.275.433-.233.543-.204.638-.184.713-.174.77-.175.805-.184.82-.203.811-.228.78-.26.722-.299.646-.34.548-.382.434-.425.31-.466.18-.502.048-.533-.077-.558-.194-.575-.296-.586-.381-.59-.447-.589-.492-.58-.519-.57-.526-.557-.516-.54-.491-.521-.453-.504-.403-.487-.343-.47-.277-.456-.204-.442-.128-.431-.047-.423.033-.416.115-.414.195-.412.274-.414.348-.418.417-.425.479-.433.531-.443.573-.455.602-.468.615-.48.61-.49.588-.502.543-.51.48-.514.396-.514.293-.512.175-.504.047-.491-.089-.475-.224-.455-.355-.434-.474-.41-.579L42.84 98l-.364-.725-.344-.763-.327-.776-.316-.765-.308-.731-.308-.676-.312-.598-.326-.503-.345-.387-.375-.254-.412-.102-.455.047-.496.176-.534.282-.572.37-.603.436-.632.482-.654.505-.669.506-.675.482-.673.437-.66.37-.638.282-.605.179-.565.062-.516-.06-.462-.188-.407-.31-.35-.423-.294-.526-.243-.612-.2-.68-.16-.73-.133-.76-.111-.771-.1-.768-.097-.748-.102-.716-.114-.674-.134-.622-.16-.566-.19-.502-.226-.438-.266-.37-.31-.302-.355-.234-.403-.17-.451-.105-.502-.047-.55.009-.597.057-.64.098-.68.132-.715.155-.739.166-.755.167-.76.153-.75.125-.729.082-.69.026-.638-.043-.57-.125-.49-.213-.4-.307-.302-.402-.203-.495-.104-.58-.013-.655.07-.716.14-.763.192-.793.23-.805.247-.802.246-.783.226-.75.187-.705.131-.647.056-.58-.036-.504-.148-.419-.276-.326-.403-.243-.512-.175-.61-.12-.689-.08-.754-.052-.802-.039-.83-.037-.837-.049-.825-.073-.788-.108-.732-.153-.656-.206-.56-.266-.453-.328-.336-.392-.213-.452-.091-.508.023-.558.13-.598.22-.63.295-.65.352-.663.39-.665.412-.66.414-.647.4-.63.375-.608.335-.583.286-.557.228-.53.163-.5.093-.476.018-.45-.06-.425-.137-.405-.216-.385-.294-.37-.37-.357-.44-.347-.508-.34-.566-.339-.616-.339-.654-.343-.678-.352-.688-.362-.679-.376-.65-.393-.602-.41-.533-.43-.444-.448-.338-.465-.216-.482-.086-.495.05-.503.186-.51.314-.51.43-.507.53-.5.609-.49.664-.478.696-.464.703-.45.685-.437.645-.425.582-.415.498-.409.394-.406.27-.41.126-.416-.033-.43-.18-.45-.304-.467-.41-.489-.493-.51-.556-.53-.598-.55-.615-.567-.61-.58-.58-.589-.525-.591-.449-.588-.352-.578-.239-.562-.114-.538.018-.509.15-.476.279-.44.396-.404.5-.367.588-.332.655-.3.702-.274.73-.252.738-.236.73-.226.706-.221.67-.224.621-.23.565-.243.502-.26.433-.283.362-.308.288-.337.213-.37.14-.403.067-.441-.002-.48-.067-.518-.128-.556-.181-.595-.227-.63-.262-.661-.286-.69-.298-.709-.295-.721-.276-.726-.241-.717-.189-.697-.12-.664-.039-.62.058-.561.162-.494.271-.418.382-.337.488-.253.585-.172.67-.096.74-.028.79.028.82.071.833.099.826.11.8.108.76.087.7.05.63-.002.547-.07.45-.154.344-.258.23-.371.132-.477.052-.57-.013-.651-.06-.72-.093-.773-.11-.811-.108-.833-.093-.835-.062-.819-.016-.782.044-.726.113-.654.19-.565.273-.465.355-.356.435-.246.51-.137.574-.033.629.06.67.138.7.204.718.252.723.284.717.298.702.297.68.283.652.255.62.218.582.17.546.113.506.053.468-.015.43-.085.394-.158.36-.232.329-.307.3-.38.275-.453.255-.52.239-.581.227-.637.222-.682.22-.716.228-.736.238-.741.255-.728.279-.695.307-.643.338-.57.374-.479.411-.37.448-.25.483-.118.514.014.542.146.564.268.579.379.587.471.589.543.585.591.575.616.56.616.544.592.524.545.502.477.482.387.461.277.443.147.425-.006.413-.163.406-.303.405-.423.408-.522.416-.601.425-.66.439-.694.451-.706.466-.693.48-.656.49-.594.5-.51.507-.404.508-.285.506-.154.5-.018.49.119.476.247.46.367.442.469.423.553.404.618.387.662.372.686.358.69.347.676.341.648.337.607.337.555.341.494.348.426.358.353.372.276.388.198.408.12.43.04.454-.037.48-.11.505-.18.534-.244.561-.3.587-.347.612-.384.632-.407.648-.416.659-.41.663-.384.657-.341.644-.28.62-.2.588-.106.544.004.494.12.436.245.375.365.311.482.25.588.192.678.141.75.098.803.066.832.045.841.036.829.04.794.058.744.088.674.132.59.189.489.26.374.348.246.438.12.521.011.595-.076.66-.147.714-.199.756-.233.786-.25.801-.245.801-.223.784-.182.75-.125.7-.05.635.033.558.13.471.227.378.328.283.424.19.512.104.59.026.654-.04.703-.095.739-.132.757-.157.763-.167.755-.165.737-.15.709-.123.674-.089.633-.046.588.005.54.06.491.12.442.184.393.25.345.317.3.385.257.452.218.516.183.578.154.633.129.682.11.722.101.751.097.767.102.768.117.75.139.717.17.663.21.59.256.501.309.396.364.28.422.155.478.03.53-.09.578-.205.616-.303.647-.387.666-.448.677-.489.678-.505.668-.5.652-.47.628-.42.599-.35.565-.257.527-.146.488-.013.446.027.133Z" fill="#FBFF3E"/></svg>