<svg width="107" height="25" viewBox="0 0 107 25" fill="none" xmlns="http://www.w3.org/2000/svg">
<rect x="0.5" y="0.5" width="106" height="24" rx="12" stroke="white"/>
<path d="M11.824 16C11.648 16 11.5 15.94 11.38 15.82C11.26 15.7 11.2 15.552 11.2 15.376V7.252C11.2 7.068 11.26 6.92 11.38 6.808C11.5 6.688 11.648 6.628 11.824 6.628C12.008 6.628 12.156 6.688 12.268 6.808C12.388 6.92 12.448 7.068 12.448 7.252V10.696H18.016V7.252C18.016 7.068 18.076 6.92 18.196 6.808C18.316 6.688 18.464 6.628 18.64 6.628C18.824 6.628 18.972 6.688 19.084 6.808C19.196 6.92 19.252 7.068 19.252 7.252V15.376C19.252 15.552 19.196 15.7 19.084 15.82C18.972 15.94 18.824 16 18.64 16C18.464 16 18.316 15.94 18.196 15.82C18.076 15.7 18.016 15.552 18.016 15.376V11.8H12.448V15.376C12.448 15.552 12.388 15.7 12.268 15.82C12.156 15.94 12.008 16 11.824 16ZM24.5091 16.048C23.8611 16.048 23.2891 15.908 22.7931 15.628C22.2971 15.34 21.9051 14.948 21.6171 14.452C21.3371 13.948 21.1971 13.372 21.1971 12.724C21.1971 12.068 21.3371 11.492 21.6171 10.996C21.9051 10.492 22.2971 10.1 22.7931 9.82C23.2891 9.532 23.8611 9.388 24.5091 9.388C25.1491 9.388 25.7171 9.532 26.2131 9.82C26.7091 10.1 27.0971 10.492 27.3771 10.996C27.6651 11.492 27.8091 12.068 27.8091 12.724C27.8091 13.372 27.6691 13.948 27.3891 14.452C27.1091 14.948 26.7211 15.34 26.2251 15.628C25.7291 15.908 25.1571 16.048 24.5091 16.048ZM24.5091 14.968C24.9251 14.968 25.2931 14.872 25.6131 14.68C25.9331 14.488 26.1811 14.224 26.3571 13.888C26.5411 13.552 26.6331 13.164 26.6331 12.724C26.6331 12.284 26.5411 11.896 26.3571 11.56C26.1811 11.216 25.9331 10.948 25.6131 10.756C25.2931 10.564 24.9251 10.468 24.5091 10.468C24.0931 10.468 23.7251 10.564 23.4051 10.756C23.0851 10.948 22.8331 11.216 22.6491 11.56C22.4651 11.896 22.3731 12.284 22.3731 12.724C22.3731 13.164 22.4651 13.552 22.6491 13.888C22.8331 14.224 23.0851 14.488 23.4051 14.68C23.7251 14.872 24.0931 14.968 24.5091 14.968ZM38.2468 16.012C38.0708 16.012 37.9228 15.956 37.8028 15.844C37.6908 15.724 37.6348 15.576 37.6348 15.4V11.968C37.6348 11.464 37.5108 11.092 37.2628 10.852C37.0148 10.604 36.6908 10.48 36.2908 10.48C35.8748 10.48 35.5308 10.624 35.2588 10.912C34.9948 11.2 34.8628 11.568 34.8628 12.016H33.8668C33.8668 11.496 33.9788 11.04 34.2028 10.648C34.4268 10.248 34.7388 9.936 35.1388 9.712C35.5468 9.488 36.0108 9.376 36.5308 9.376C36.9868 9.376 37.3908 9.476 37.7428 9.676C38.0948 9.876 38.3668 10.172 38.5588 10.564C38.7588 10.948 38.8588 11.416 38.8588 11.968V15.4C38.8588 15.576 38.8028 15.724 38.6908 15.844C38.5788 15.956 38.4308 16.012 38.2468 16.012ZM30.2428 16.012C30.0668 16.012 29.9188 15.956 29.7988 15.844C29.6868 15.724 29.6308 15.576 29.6308 15.4V10.06C29.6308 9.876 29.6868 9.728 29.7988 9.616C29.9188 9.504 30.0668 9.448 30.2428 9.448C30.4268 9.448 30.5748 9.504 30.6868 9.616C30.7988 9.728 30.8548 9.876 30.8548 10.06V15.4C30.8548 15.576 30.7988 15.724 30.6868 15.844C30.5748 15.956 30.4268 16.012 30.2428 16.012ZM34.2508 16.012C34.0748 16.012 33.9268 15.956 33.8068 15.844C33.6948 15.724 33.6388 15.576 33.6388 15.4V11.968C33.6388 11.464 33.5148 11.092 33.2668 10.852C33.0188 10.604 32.6948 10.48 32.2948 10.48C31.8788 10.48 31.5348 10.624 31.2628 10.912C30.9908 11.2 30.8548 11.568 30.8548 12.016H30.0988C30.0988 11.496 30.2028 11.04 30.4108 10.648C30.6188 10.248 30.9068 9.936 31.2748 9.712C31.6428 9.488 32.0628 9.376 32.5348 9.376C32.9908 9.376 33.3948 9.476 33.7468 9.676C34.0988 9.876 34.3708 10.172 34.5628 10.564C34.7628 10.948 34.8628 11.416 34.8628 11.968V15.4C34.8628 15.576 34.8068 15.724 34.6948 15.844C34.5828 15.956 34.4348 16.012 34.2508 16.012ZM43.8685 16.048C43.2205 16.048 42.6485 15.908 42.1525 15.628C41.6565 15.34 41.2645 14.948 40.9765 14.452C40.6965 13.948 40.5565 13.372 40.5565 12.724C40.5565 12.068 40.6965 11.492 40.9765 10.996C41.2645 10.492 41.6565 10.1 42.1525 9.82C42.6485 9.532 43.2205 9.388 43.8685 9.388C44.5085 9.388 45.0765 9.532 45.5725 9.82C46.0685 10.1 46.4565 10.492 46.7365 10.996C47.0245 11.492 47.1685 12.068 47.1685 12.724C47.1685 13.372 47.0285 13.948 46.7485 14.452C46.4685 14.948 46.0805 15.34 45.5845 15.628C45.0885 15.908 44.5165 16.048 43.8685 16.048ZM43.8685 14.968C44.2845 14.968 44.6525 14.872 44.9725 14.68C45.2925 14.488 45.5405 14.224 45.7165 13.888C45.9005 13.552 45.9925 13.164 45.9925 12.724C45.9925 12.284 45.9005 11.896 45.7165 11.56C45.5405 11.216 45.2925 10.948 44.9725 10.756C44.6525 10.564 44.2845 10.468 43.8685 10.468C43.4525 10.468 43.0845 10.564 42.7645 10.756C42.4445 10.948 42.1925 11.216 42.0085 11.56C41.8245 11.896 41.7325 12.284 41.7325 12.724C41.7325 13.164 41.8245 13.552 42.0085 13.888C42.1925 14.224 42.4445 14.488 42.7645 14.68C43.0845 14.872 43.4525 14.968 43.8685 14.968ZM54.5102 16C54.3342 16 54.1862 15.944 54.0662 15.832C53.9542 15.712 53.8982 15.564 53.8982 15.388V10.048C53.8982 9.864 53.9542 9.716 54.0662 9.604C54.1862 9.492 54.3342 9.436 54.5102 9.436C54.6942 9.436 54.8382 9.492 54.9422 9.604C55.0462 9.716 55.0982 9.864 55.0982 10.048V15.388C55.0982 15.564 55.0462 15.712 54.9422 15.832C54.8382 15.944 54.6942 16 54.5102 16ZM49.5782 16C49.4022 16 49.2582 15.944 49.1462 15.832C49.0422 15.712 48.9902 15.564 48.9902 15.388V10.048C48.9902 9.864 49.0422 9.716 49.1462 9.604C49.2582 9.492 49.4022 9.436 49.5782 9.436C49.7622 9.436 49.9102 9.492 50.0222 9.604C50.1342 9.716 50.1902 9.864 50.1902 10.048V15.388C50.1902 15.564 50.1342 15.712 50.0222 15.832C49.9102 15.944 49.7622 16 49.5782 16ZM50.0342 13.132V12.052H54.2462V13.132H50.0342ZM60.2396 16.048C59.5916 16.048 59.0196 15.908 58.5236 15.628C58.0276 15.34 57.6356 14.948 57.3476 14.452C57.0676 13.948 56.9276 13.372 56.9276 12.724C56.9276 12.068 57.0676 11.492 57.3476 10.996C57.6356 10.492 58.0276 10.1 58.5236 9.82C59.0196 9.532 59.5916 9.388 60.2396 9.388C60.8796 9.388 61.4476 9.532 61.9436 9.82C62.4396 10.1 62.8276 10.492 63.1076 10.996C63.3956 11.492 63.5396 12.068 63.5396 12.724C63.5396 13.372 63.3996 13.948 63.1196 14.452C62.8396 14.948 62.4516 15.34 61.9556 15.628C61.4596 15.908 60.8876 16.048 60.2396 16.048ZM60.2396 14.968C60.6556 14.968 61.0236 14.872 61.3436 14.68C61.6636 14.488 61.9116 14.224 62.0876 13.888C62.2716 13.552 62.3636 13.164 62.3636 12.724C62.3636 12.284 62.2716 11.896 62.0876 11.56C61.9116 11.216 61.6636 10.948 61.3436 10.756C61.0236 10.564 60.6556 10.468 60.2396 10.468C59.8236 10.468 59.4556 10.564 59.1356 10.756C58.8156 10.948 58.5636 11.216 58.3796 11.56C58.1956 11.896 58.1036 12.284 58.1036 12.724C58.1036 13.164 58.1956 13.552 58.3796 13.888C58.5636 14.224 58.8156 14.488 59.1356 14.68C59.4556 14.872 59.8236 14.968 60.2396 14.968ZM65.9733 16C65.7973 16 65.6493 15.944 65.5293 15.832C65.4173 15.712 65.3613 15.564 65.3613 15.388V10.048C65.3613 9.864 65.4173 9.716 65.5293 9.604C65.6493 9.492 65.7973 9.436 65.9733 9.436C66.2293 9.436 66.4453 9.56 66.6213 9.808L69.1053 13.396L71.5893 9.808C71.7653 9.56 71.9813 9.436 72.2373 9.436C72.4213 9.436 72.5693 9.492 72.6813 9.604C72.7933 9.716 72.8493 9.864 72.8493 10.048V15.388C72.8493 15.564 72.7933 15.712 72.6813 15.832C72.5693 15.944 72.4213 16 72.2373 16C72.0613 16 71.9133 15.944 71.7933 15.832C71.6813 15.712 71.6253 15.564 71.6253 15.388V11.02L71.9373 11.116L69.7293 14.236C69.5293 14.516 69.3133 14.656 69.0813 14.656C68.8493 14.648 68.6373 14.508 68.4453 14.236L66.2733 11.116L66.5853 11.02V15.388C66.5853 15.564 66.5293 15.712 66.4173 15.832C66.3053 15.944 66.1573 16 65.9733 16ZM77.7658 16.06C77.2138 16.06 76.7178 15.944 76.2778 15.712C75.8458 15.472 75.5018 15.124 75.2458 14.668C74.9978 14.212 74.8738 13.652 74.8738 12.988V10.036C74.8738 9.86 74.9298 9.716 75.0418 9.604C75.1618 9.484 75.3098 9.424 75.4858 9.424C75.6618 9.424 75.8058 9.484 75.9178 9.604C76.0378 9.716 76.0978 9.86 76.0978 10.036V12.988C76.0978 13.436 76.1818 13.808 76.3498 14.104C76.5178 14.392 76.7458 14.608 77.0338 14.752C77.3218 14.888 77.6458 14.956 78.0058 14.956C78.3498 14.956 78.6538 14.888 78.9178 14.752C79.1898 14.616 79.4058 14.432 79.5658 14.2C79.7258 13.968 79.8058 13.708 79.8058 13.42H80.5618C80.5618 13.916 80.4378 14.364 80.1898 14.764C79.9498 15.164 79.6178 15.48 79.1938 15.712C78.7778 15.944 78.3018 16.06 77.7658 16.06ZM80.4178 16C80.2418 16 80.0938 15.944 79.9738 15.832C79.8618 15.712 79.8058 15.564 79.8058 15.388V10.036C79.8058 9.852 79.8618 9.704 79.9738 9.592C80.0938 9.48 80.2418 9.424 80.4178 9.424C80.6018 9.424 80.7498 9.48 80.8618 9.592C80.9738 9.704 81.0298 9.852 81.0298 10.036V15.388C81.0298 15.564 80.9738 15.712 80.8618 15.832C80.7498 15.944 80.6018 16 80.4178 16ZM88.5135 15.856C88.4095 15.952 88.2615 16 88.0695 16C87.8855 15.992 87.7415 15.936 87.6375 15.832L84.7215 12.7L87.4695 9.628C87.5735 9.516 87.7175 9.452 87.9015 9.436C88.0935 9.42 88.2415 9.46 88.3455 9.556C88.4655 9.668 88.5335 9.796 88.5495 9.94C88.5655 10.076 88.5215 10.2 88.4175 10.312L86.2455 12.64L88.5495 15.112C88.6535 15.216 88.7055 15.34 88.7055 15.484C88.7055 15.62 88.6415 15.744 88.5135 15.856ZM83.7615 16.012C83.5855 16.012 83.4455 15.956 83.3415 15.844C83.2375 15.724 83.1855 15.576 83.1855 15.4V10.048C83.1855 9.864 83.2375 9.716 83.3415 9.604C83.4455 9.492 83.5855 9.436 83.7615 9.436C83.9455 9.436 84.0935 9.492 84.2055 9.604C84.3255 9.716 84.3855 9.864 84.3855 10.048V12.052H85.9215V13.18H84.3855V15.4C84.3855 15.576 84.3255 15.724 84.2055 15.844C84.0935 15.956 83.9455 16.012 83.7615 16.012ZM92.3433 16.048C91.7593 16.048 91.2353 15.904 90.7713 15.616C90.3073 15.32 89.9393 14.924 89.6673 14.428C89.4033 13.924 89.2713 13.356 89.2713 12.724C89.2713 12.092 89.4153 11.524 89.7033 11.02C89.9993 10.516 90.3953 10.12 90.8913 9.832C91.3953 9.536 91.9593 9.388 92.5833 9.388C93.2073 9.388 93.7673 9.536 94.2633 9.832C94.7593 10.12 95.1513 10.516 95.4393 11.02C95.7353 11.524 95.8833 12.092 95.8833 12.724H95.4153C95.4153 13.356 95.2793 13.924 95.0073 14.428C94.7433 14.924 94.3793 15.32 93.9153 15.616C93.4513 15.904 92.9273 16.048 92.3433 16.048ZM92.5833 14.968C92.9913 14.968 93.3553 14.872 93.6753 14.68C93.9953 14.48 94.2473 14.212 94.4313 13.876C94.6153 13.532 94.7073 13.148 94.7073 12.724C94.7073 12.292 94.6153 11.908 94.4313 11.572C94.2473 11.228 93.9953 10.96 93.6753 10.768C93.3553 10.568 92.9913 10.468 92.5833 10.468C92.1833 10.468 91.8193 10.568 91.4913 10.768C91.1713 10.96 90.9153 11.228 90.7233 11.572C90.5393 11.908 90.4473 12.292 90.4473 12.724C90.4473 13.148 90.5393 13.532 90.7233 13.876C90.9153 14.212 91.1713 14.48 91.4913 14.68C91.8193 14.872 92.1833 14.968 92.5833 14.968ZM95.2713 16.012C95.0953 16.012 94.9473 15.956 94.8273 15.844C94.7153 15.724 94.6593 15.576 94.6593 15.4V13.564L94.8873 12.292L95.8833 12.724V15.4C95.8833 15.576 95.8233 15.724 95.7033 15.844C95.5913 15.956 95.4473 16.012 95.2713 16.012Z" fill="white"/>
</svg>
