<svg width="136" height="30" viewBox="0 0 136 30" fill="none" xmlns="http://www.w3.org/2000/svg">
<rect x="0.5" y="0.500977" width="135" height="29" rx="14.5" stroke="white"/>
<path d="M12.432 20.001C12.1973 20.001 12 19.921 11.84 19.761C11.68 19.601 11.6 19.4036 11.6 19.169V8.33698C11.6 8.09164 11.68 7.89431 11.84 7.74498C12 7.58498 12.1973 7.50498 12.432 7.50498C12.6773 7.50498 12.8747 7.58498 13.024 7.74498C13.184 7.89431 13.264 8.09164 13.264 8.33698V12.929H20.688V8.33698C20.688 8.09164 20.768 7.89431 20.928 7.74498C21.088 7.58498 21.2853 7.50498 21.52 7.50498C21.7653 7.50498 21.9627 7.58498 22.112 7.74498C22.2613 7.89431 22.336 8.09164 22.336 8.33698V19.169C22.336 19.4036 22.2613 19.601 22.112 19.761C21.9627 19.921 21.7653 20.001 21.52 20.001C21.2853 20.001 21.088 19.921 20.928 19.761C20.768 19.601 20.688 19.4036 20.688 19.169V14.401H13.264V19.169C13.264 19.4036 13.184 19.601 13.024 19.761C12.8747 19.921 12.6773 20.001 12.432 20.001ZM29.3455 20.065C28.4815 20.065 27.7188 19.8783 27.0575 19.505C26.3962 19.121 25.8735 18.5983 25.4895 17.937C25.1162 17.265 24.9295 16.497 24.9295 15.633C24.9295 14.7583 25.1162 13.9903 25.4895 13.329C25.8735 12.657 26.3962 12.1343 27.0575 11.761C27.7188 11.377 28.4815 11.185 29.3455 11.185C30.1988 11.185 30.9562 11.377 31.6175 11.761C32.2788 12.1343 32.7962 12.657 33.1695 13.329C33.5535 13.9903 33.7455 14.7583 33.7455 15.633C33.7455 16.497 33.5588 17.265 33.1855 17.937C32.8122 18.5983 32.2948 19.121 31.6335 19.505C30.9722 19.8783 30.2095 20.065 29.3455 20.065ZM29.3455 18.625C29.9002 18.625 30.3908 18.497 30.8175 18.241C31.2442 17.985 31.5748 17.633 31.8095 17.185C32.0548 16.737 32.1775 16.2196 32.1775 15.633C32.1775 15.0463 32.0548 14.529 31.8095 14.081C31.5748 13.6223 31.2442 13.265 30.8175 13.009C30.3908 12.753 29.9002 12.625 29.3455 12.625C28.7908 12.625 28.3002 12.753 27.8735 13.009C27.4468 13.265 27.1108 13.6223 26.8655 14.081C26.6202 14.529 26.4975 15.0463 26.4975 15.633C26.4975 16.2196 26.6202 16.737 26.8655 17.185C27.1108 17.633 27.4468 17.985 27.8735 18.241C28.3002 18.497 28.7908 18.625 29.3455 18.625ZM47.6624 20.017C47.4277 20.017 47.2304 19.9423 47.0704 19.793C46.921 19.633 46.8464 19.4356 46.8464 19.201V14.625C46.8464 13.953 46.681 13.457 46.3504 13.137C46.0197 12.8063 45.5877 12.641 45.0544 12.641C44.4997 12.641 44.041 12.833 43.6784 13.217C43.3264 13.601 43.1504 14.0916 43.1504 14.689H41.8224C41.8224 13.9956 41.9717 13.3876 42.2704 12.865C42.569 12.3316 42.985 11.9156 43.5184 11.617C44.0624 11.3183 44.681 11.169 45.3744 11.169C45.9824 11.169 46.521 11.3023 46.9904 11.569C47.4597 11.8356 47.8224 12.2303 48.0784 12.753C48.345 13.265 48.4784 13.889 48.4784 14.625V19.201C48.4784 19.4356 48.4037 19.633 48.2544 19.793C48.105 19.9423 47.9077 20.017 47.6624 20.017ZM36.9904 20.017C36.7557 20.017 36.5584 19.9423 36.3984 19.793C36.249 19.633 36.1744 19.4356 36.1744 19.201V12.081C36.1744 11.8356 36.249 11.6383 36.3984 11.489C36.5584 11.3396 36.7557 11.265 36.9904 11.265C37.2357 11.265 37.433 11.3396 37.5824 11.489C37.7317 11.6383 37.8064 11.8356 37.8064 12.081V19.201C37.8064 19.4356 37.7317 19.633 37.5824 19.793C37.433 19.9423 37.2357 20.017 36.9904 20.017ZM42.3344 20.017C42.0997 20.017 41.9024 19.9423 41.7424 19.793C41.593 19.633 41.5184 19.4356 41.5184 19.201V14.625C41.5184 13.953 41.353 13.457 41.0224 13.137C40.6917 12.8063 40.2597 12.641 39.7264 12.641C39.1717 12.641 38.713 12.833 38.3504 13.217C37.9877 13.601 37.8064 14.0916 37.8064 14.689H36.7984C36.7984 13.9956 36.937 13.3876 37.2144 12.865C37.4917 12.3316 37.8757 11.9156 38.3664 11.617C38.857 11.3183 39.417 11.169 40.0464 11.169C40.6544 11.169 41.193 11.3023 41.6624 11.569C42.1317 11.8356 42.4944 12.2303 42.7504 12.753C43.017 13.265 43.1504 13.889 43.1504 14.625V19.201C43.1504 19.4356 43.0757 19.633 42.9264 19.793C42.777 19.9423 42.5797 20.017 42.3344 20.017ZM55.158 20.065C54.294 20.065 53.5313 19.8783 52.87 19.505C52.2087 19.121 51.686 18.5983 51.302 17.937C50.9287 17.265 50.742 16.497 50.742 15.633C50.742 14.7583 50.9287 13.9903 51.302 13.329C51.686 12.657 52.2087 12.1343 52.87 11.761C53.5313 11.377 54.294 11.185 55.158 11.185C56.0113 11.185 56.7687 11.377 57.43 11.761C58.0913 12.1343 58.6087 12.657 58.982 13.329C59.366 13.9903 59.558 14.7583 59.558 15.633C59.558 16.497 59.3713 17.265 58.998 17.937C58.6247 18.5983 58.1073 19.121 57.446 19.505C56.7847 19.8783 56.022 20.065 55.158 20.065ZM55.158 18.625C55.7127 18.625 56.2033 18.497 56.63 18.241C57.0567 17.985 57.3873 17.633 57.622 17.185C57.8673 16.737 57.99 16.2196 57.99 15.633C57.99 15.0463 57.8673 14.529 57.622 14.081C57.3873 13.6223 57.0567 13.265 56.63 13.009C56.2033 12.753 55.7127 12.625 55.158 12.625C54.6033 12.625 54.1127 12.753 53.686 13.009C53.2593 13.265 52.9233 13.6223 52.678 14.081C52.4327 14.529 52.31 15.0463 52.31 15.633C52.31 16.2196 52.4327 16.737 52.678 17.185C52.9233 17.633 53.2593 17.985 53.686 18.241C54.1127 18.497 54.6033 18.625 55.158 18.625ZM69.3469 20.001C69.1122 20.001 68.9149 19.9263 68.7549 19.777C68.6055 19.617 68.5309 19.4196 68.5309 19.185V12.065C68.5309 11.8196 68.6055 11.6223 68.7549 11.473C68.9149 11.3236 69.1122 11.249 69.3469 11.249C69.5922 11.249 69.7842 11.3236 69.9229 11.473C70.0615 11.6223 70.1309 11.8196 70.1309 12.065V19.185C70.1309 19.4196 70.0615 19.617 69.9229 19.777C69.7842 19.9263 69.5922 20.001 69.3469 20.001ZM62.7709 20.001C62.5362 20.001 62.3442 19.9263 62.1949 19.777C62.0562 19.617 61.9869 19.4196 61.9869 19.185V12.065C61.9869 11.8196 62.0562 11.6223 62.1949 11.473C62.3442 11.3236 62.5362 11.249 62.7709 11.249C63.0162 11.249 63.2135 11.3236 63.3629 11.473C63.5122 11.6223 63.5869 11.8196 63.5869 12.065V19.185C63.5869 19.4196 63.5122 19.617 63.3629 19.777C63.2135 19.9263 63.0162 20.001 62.7709 20.001ZM63.3789 16.177V14.737H68.9949V16.177H63.3789ZM76.9861 20.065C76.1221 20.065 75.3595 19.8783 74.6981 19.505C74.0368 19.121 73.5141 18.5983 73.1301 17.937C72.7568 17.265 72.5701 16.497 72.5701 15.633C72.5701 14.7583 72.7568 13.9903 73.1301 13.329C73.5141 12.657 74.0368 12.1343 74.6981 11.761C75.3595 11.377 76.1221 11.185 76.9861 11.185C77.8395 11.185 78.5968 11.377 79.2581 11.761C79.9195 12.1343 80.4368 12.657 80.8101 13.329C81.1941 13.9903 81.3861 14.7583 81.3861 15.633C81.3861 16.497 81.1995 17.265 80.8261 17.937C80.4528 18.5983 79.9355 19.121 79.2741 19.505C78.6128 19.8783 77.8501 20.065 76.9861 20.065ZM76.9861 18.625C77.5408 18.625 78.0315 18.497 78.4581 18.241C78.8848 17.985 79.2155 17.633 79.4501 17.185C79.6955 16.737 79.8181 16.2196 79.8181 15.633C79.8181 15.0463 79.6955 14.529 79.4501 14.081C79.2155 13.6223 78.8848 13.265 78.4581 13.009C78.0315 12.753 77.5408 12.625 76.9861 12.625C76.4315 12.625 75.9408 12.753 75.5141 13.009C75.0875 13.265 74.7515 13.6223 74.5061 14.081C74.2608 14.529 74.1381 15.0463 74.1381 15.633C74.1381 16.2196 74.2608 16.737 74.5061 17.185C74.7515 17.633 75.0875 17.985 75.5141 18.241C75.9408 18.497 76.4315 18.625 76.9861 18.625ZM84.631 20.001C84.3963 20.001 84.199 19.9263 84.039 19.777C83.8897 19.617 83.815 19.4196 83.815 19.185V12.065C83.815 11.8196 83.8897 11.6223 84.039 11.473C84.199 11.3236 84.3963 11.249 84.631 11.249C84.9723 11.249 85.2603 11.4143 85.495 11.745L88.807 16.529L92.119 11.745C92.3537 11.4143 92.6417 11.249 92.983 11.249C93.2283 11.249 93.4257 11.3236 93.575 11.473C93.7243 11.6223 93.799 11.8196 93.799 12.065V19.185C93.799 19.4196 93.7243 19.617 93.575 19.777C93.4257 19.9263 93.2283 20.001 92.983 20.001C92.7483 20.001 92.551 19.9263 92.391 19.777C92.2417 19.617 92.167 19.4196 92.167 19.185V13.361L92.583 13.489L89.639 17.649C89.3723 18.0223 89.0843 18.209 88.775 18.209C88.4657 18.1983 88.183 18.0116 87.927 17.649L85.031 13.489L85.447 13.361V19.185C85.447 19.4196 85.3723 19.617 85.223 19.777C85.0737 19.9263 84.8763 20.001 84.631 20.001ZM100.354 20.081C99.6184 20.081 98.957 19.9263 98.3704 19.617C97.7944 19.297 97.3357 18.833 96.9944 18.225C96.6637 17.617 96.4984 16.8703 96.4984 15.985V12.049C96.4984 11.8143 96.573 11.6223 96.7224 11.473C96.8824 11.313 97.0797 11.233 97.3144 11.233C97.549 11.233 97.741 11.313 97.8904 11.473C98.0504 11.6223 98.1304 11.8143 98.1304 12.049V15.985C98.1304 16.5823 98.2424 17.0783 98.4664 17.473C98.6904 17.857 98.9944 18.145 99.3784 18.337C99.7624 18.5183 100.194 18.609 100.674 18.609C101.133 18.609 101.538 18.5183 101.89 18.337C102.253 18.1556 102.541 17.9103 102.754 17.601C102.968 17.2916 103.074 16.945 103.074 16.561H104.082C104.082 17.2223 103.917 17.8196 103.586 18.353C103.266 18.8863 102.824 19.3076 102.258 19.617C101.704 19.9263 101.069 20.081 100.354 20.081ZM103.89 20.001C103.656 20.001 103.458 19.9263 103.298 19.777C103.149 19.617 103.074 19.4196 103.074 19.185V12.049C103.074 11.8036 103.149 11.6063 103.298 11.457C103.458 11.3076 103.656 11.233 103.89 11.233C104.136 11.233 104.333 11.3076 104.482 11.457C104.632 11.6063 104.706 11.8036 104.706 12.049V19.185C104.706 19.4196 104.632 19.617 104.482 19.777C104.333 19.9263 104.136 20.001 103.89 20.001ZM114.685 19.809C114.546 19.937 114.349 20.001 114.093 20.001C113.847 19.9903 113.655 19.9156 113.517 19.777L109.629 15.601L113.293 11.505C113.431 11.3556 113.623 11.2703 113.869 11.249C114.125 11.2276 114.322 11.281 114.461 11.409C114.621 11.5583 114.711 11.729 114.733 11.921C114.754 12.1023 114.695 12.2676 114.557 12.417L111.661 15.521L114.733 18.817C114.871 18.9556 114.941 19.121 114.941 19.313C114.941 19.4943 114.855 19.6596 114.685 19.809ZM108.349 20.017C108.114 20.017 107.927 19.9423 107.789 19.793C107.65 19.633 107.581 19.4356 107.581 19.201V12.065C107.581 11.8196 107.65 11.6223 107.789 11.473C107.927 11.3236 108.114 11.249 108.349 11.249C108.594 11.249 108.791 11.3236 108.941 11.473C109.101 11.6223 109.181 11.8196 109.181 12.065V14.737H111.229V16.241H109.181V19.201C109.181 19.4356 109.101 19.633 108.941 19.793C108.791 19.9423 108.594 20.017 108.349 20.017ZM119.791 20.065C119.012 20.065 118.314 19.873 117.695 19.489C117.076 19.0943 116.586 18.5663 116.223 17.905C115.871 17.233 115.695 16.4756 115.695 15.633C115.695 14.7903 115.887 14.033 116.271 13.361C116.666 12.689 117.194 12.161 117.855 11.777C118.527 11.3823 119.279 11.185 120.111 11.185C120.943 11.185 121.69 11.3823 122.351 11.777C123.012 12.161 123.535 12.689 123.919 13.361C124.314 14.033 124.511 14.7903 124.511 15.633H123.887C123.887 16.4756 123.706 17.233 123.343 17.905C122.991 18.5663 122.506 19.0943 121.887 19.489C121.268 19.873 120.57 20.065 119.791 20.065ZM120.111 18.625C120.655 18.625 121.14 18.497 121.567 18.241C121.994 17.9743 122.33 17.617 122.575 17.169C122.82 16.7103 122.943 16.1983 122.943 15.633C122.943 15.057 122.82 14.545 122.575 14.097C122.33 13.6383 121.994 13.281 121.567 13.025C121.14 12.7583 120.655 12.625 120.111 12.625C119.578 12.625 119.092 12.7583 118.655 13.025C118.228 13.281 117.887 13.6383 117.631 14.097C117.386 14.545 117.263 15.057 117.263 15.633C117.263 16.1983 117.386 16.7103 117.631 17.169C117.887 17.617 118.228 17.9743 118.655 18.241C119.092 18.497 119.578 18.625 120.111 18.625ZM123.695 20.017C123.46 20.017 123.263 19.9423 123.103 19.793C122.954 19.633 122.879 19.4356 122.879 19.201V16.753L123.183 15.057L124.511 15.633V19.201C124.511 19.4356 124.431 19.633 124.271 19.793C124.122 19.9423 123.93 20.017 123.695 20.017Z" fill="white"/>
</svg>
