<svg width="95" height="25" fill="none" xmlns="http://www.w3.org/2000/svg"><rect x=".5" y=".5" width="94" height="24" rx="12" stroke="#fff"/><path d="M11.824 16a.603.603 0 0 1-.444-.18.603.603 0 0 1-.18-.444V7.252c0-.184.06-.332.18-.444.12-.12.268-.18.444-.18.184 0 .332.06.444.18.12.112.18.26.18.444v3.444h5.568V7.252c0-.184.06-.332.18-.444.12-.12.268-.18.444-.18.184 0 .332.06.444.18a.6.6 0 0 1 .168.444v8.124a.626.626 0 0 1-.168.444.579.579 0 0 1-.444.18.603.603 0 0 1-.444-.18.603.603 0 0 1-.18-.444V11.8h-5.568v3.576c0 .176-.06.324-.18.444a.579.579 0 0 1-.444.18Zm12.685.048c-.648 0-1.22-.14-1.716-.42a3.19 3.19 0 0 1-1.176-1.176c-.28-.504-.42-1.08-.42-1.728 0-.656.14-1.232.42-1.728.288-.504.68-.896 1.176-1.176.496-.288 1.068-.432 1.716-.432.64 0 1.208.144 1.704.432.496.28.884.672 1.164 1.176.288.496.432 1.072.432 1.728 0 .648-.14 1.224-.42 1.728a3.1 3.1 0 0 1-1.164 1.176c-.496.28-1.068.42-1.716.42Zm0-1.08c.416 0 .784-.096 1.104-.288.32-.192.568-.456.744-.792.184-.336.276-.724.276-1.164 0-.44-.092-.828-.276-1.164a1.953 1.953 0 0 0-.744-.804 2.104 2.104 0 0 0-1.104-.288c-.416 0-.784.096-1.104.288-.32.192-.572.46-.756.804a2.385 2.385 0 0 0-.276 1.164c0 .44.092.828.276 1.164.184.336.436.6.756.792.32.192.688.288 1.104.288Zm13.738 1.044a.626.626 0 0 1-.444-.168.626.626 0 0 1-.168-.444v-3.432c0-.504-.124-.876-.372-1.116-.248-.248-.572-.372-.972-.372-.416 0-.76.144-1.032.432-.264.288-.396.656-.396 1.104h-.996c0-.52.112-.976.336-1.368.224-.4.536-.712.936-.936a2.844 2.844 0 0 1 1.392-.336c.456 0 .86.1 1.212.3.352.2.624.496.816.888.2.384.3.852.3 1.404V15.4a.626.626 0 0 1-.168.444.6.6 0 0 1-.444.168Zm-8.004 0a.626.626 0 0 1-.444-.168.626.626 0 0 1-.168-.444v-5.34a.6.6 0 0 1 .168-.444.626.626 0 0 1 .444-.168.6.6 0 0 1 .444.168.6.6 0 0 1 .168.444v5.34a.626.626 0 0 1-.168.444.6.6 0 0 1-.444.168Zm4.008 0a.626.626 0 0 1-.444-.168.626.626 0 0 1-.168-.444v-3.432c0-.504-.124-.876-.372-1.116-.248-.248-.572-.372-.972-.372-.416 0-.76.144-1.032.432-.272.288-.408.656-.408 1.104h-.756c0-.52.104-.976.312-1.368.208-.4.496-.712.864-.936a2.375 2.375 0 0 1 1.26-.336c.456 0 .86.1 1.212.3.352.2.624.496.816.888.2.384.3.852.3 1.404V15.4a.626.626 0 0 1-.168.444.6.6 0 0 1-.444.168Zm9.617.036c-.648 0-1.22-.14-1.715-.42a3.19 3.19 0 0 1-1.176-1.176c-.28-.504-.42-1.08-.42-1.728 0-.656.14-1.232.42-1.728.288-.504.68-.896 1.176-1.176.495-.288 1.068-.432 1.715-.432.64 0 1.209.144 1.704.432.496.28.884.672 1.164 1.176.289.496.433 1.072.433 1.728 0 .648-.14 1.224-.42 1.728a3.1 3.1 0 0 1-1.165 1.176c-.495.28-1.068.42-1.716.42Zm0-1.08c.416 0 .785-.096 1.104-.288.32-.192.569-.456.745-.792.184-.336.276-.724.276-1.164 0-.44-.093-.828-.276-1.164a1.953 1.953 0 0 0-.745-.804 2.104 2.104 0 0 0-1.104-.288c-.416 0-.784.096-1.104.288-.32.192-.572.46-.756.804a2.385 2.385 0 0 0-.276 1.164c0 .44.093.828.276 1.164.184.336.436.6.756.792.32.192.688.288 1.104.288Zm7.582-5.52c.12 0 .228.032.324.096a.64.64 0 0 1 .228.3l2.472 5.364c.072.16.08.304.024.432a.571.571 0 0 1-.288.276c-.176.08-.328.1-.456.06-.128-.04-.236-.14-.324-.3l-2.256-5.124h.612l-2.328 5.124a.542.542 0 0 1-.324.3c-.136.04-.288.02-.456-.06a.68.68 0 0 1-.324-.288c-.056-.12-.044-.26.036-.42l2.484-5.364c.12-.264.312-.396.576-.396Zm7.56 6.6c-.649 0-1.22-.14-1.717-.42a3.19 3.19 0 0 1-1.176-1.176c-.28-.504-.42-1.08-.42-1.728 0-.656.14-1.232.42-1.728.288-.504.68-.896 1.176-1.176.496-.288 1.068-.432 1.716-.432.64 0 1.208.144 1.704.432.496.28.884.672 1.164 1.176.288.496.432 1.072.432 1.728 0 .648-.14 1.224-.42 1.728a3.1 3.1 0 0 1-1.164 1.176c-.496.28-1.068.42-1.716.42Zm0-1.08c.415 0 .783-.096 1.103-.288.32-.192.568-.456.744-.792.184-.336.276-.724.276-1.164 0-.44-.092-.828-.276-1.164a1.953 1.953 0 0 0-.744-.804 2.104 2.104 0 0 0-1.104-.288c-.416 0-.784.096-1.104.288-.32.192-.572.46-.756.804a2.385 2.385 0 0 0-.276 1.164c0 .44.092.828.276 1.164.184.336.436.6.756.792.32.192.688.288 1.104.288Zm7.149 1.08c-.504 0-.956-.076-1.356-.228a2.33 2.33 0 0 1-.936-.66c-.224-.28-.336-.6-.336-.96s.1-.668.3-.924c.208-.256.504-.472.888-.648.392-.176.86-.316 1.404-.42.544-.112.912-.244 1.104-.396a.762.762 0 0 0 .288-.612c0-.256-.128-.444-.384-.564a1.96 1.96 0 0 0-.888-.192c-.28 0-.56.044-.84.132-.272.088-.5.216-.684.384a.95.95 0 0 1-.396.228c-.144.04-.26.032-.348-.024a.623.623 0 0 1-.288-.372.481.481 0 0 1 .108-.42c.24-.296.576-.532 1.008-.708.44-.184.924-.276 1.452-.276.448 0 .856.072 1.224.216.368.136.66.34.876.612.224.272.336.608.336 1.008 0 .464-.188.856-.564 1.176-.376.312-.948.552-1.716.72-.632.128-1.068.28-1.308.456-.24.168-.356.372-.348.612.008.248.128.44.36.576.232.136.58.204 1.044.204.416 0 .768-.04 1.056-.12.296-.088.528-.22.696-.396.112-.12.24-.2.384-.24.144-.04.292.004.444.132.136.112.204.24.204.384a.59.59 0 0 1-.18.408c-.264.264-.632.484-1.104.66a4.44 4.44 0 0 1-1.5.252Zm7.048.012a3.141 3.141 0 0 1-1.488-.348 2.644 2.644 0 0 1-1.032-1.044c-.248-.456-.372-1.016-.372-1.68v-2.952c0-.176.056-.32.168-.432.12-.12.268-.18.444-.18s.32.06.432.18c.12.112.18.256.18.432v2.952c0 .448.084.82.252 1.116.168.288.396.504.684.648.288.136.612.204.972.204.344 0 .648-.068.912-.204.272-.136.488-.32.648-.552.16-.232.24-.492.24-.78h.756c0 .496-.124.944-.372 1.344-.24.4-.572.716-.996.948-.416.232-.892.348-1.428.348ZM75.86 16a.626.626 0 0 1-.444-.168.626.626 0 0 1-.168-.444v-5.352a.6.6 0 0 1 .168-.444.626.626 0 0 1 .444-.168.6.6 0 0 1 .444.168.6.6 0 0 1 .168.444v5.352a.626.626 0 0 1-.168.444.6.6 0 0 1-.444.168Zm6.92 0a.57.57 0 0 1-.42-.168.626.626 0 0 1-.168-.444v-1.584h-1.692v-.156c-.424 0-.8-.084-1.128-.252a1.905 1.905 0 0 1-.768-.696 1.914 1.914 0 0 1-.276-1.032c0-.424.1-.804.3-1.14.208-.336.488-.6.84-.792.36-.2.772-.3 1.236-.3h2.076a.6.6 0 0 1 .444.168.6.6 0 0 1 .168.444V15.4a.627.627 0 0 1-.18.432.56.56 0 0 1-.432.168Zm-4.26-.144c-.128-.112-.188-.236-.18-.372a.652.652 0 0 1 .144-.372l1.464-1.908h1.596L79.49 15.76c-.136.176-.304.26-.504.252-.2-.008-.356-.06-.468-.156Zm2.184-3.06h1.488v-2.22h-1.488c-.32 0-.6.104-.84.312-.24.2-.36.46-.36.78 0 .336.12.608.36.816.24.208.52.312.84.312Z" fill="#fff"/></svg>