<svg width="120" height="30" fill="none" xmlns="http://www.w3.org/2000/svg"><rect x=".5" y=".5" width="119" height="29" rx="14.5" fill="#fff"/><rect x=".5" y=".5" width="119" height="29" rx="14.5" stroke="#3973BF"/><path d="M12.432 20a.804.804 0 0 1-.592-.24.804.804 0 0 1-.24-.592V8.336c0-.245.08-.443.24-.592.16-.16.357-.24.592-.24.245 0 .443.08.592.24.16.15.24.347.24.592v4.592h7.424V8.336c0-.245.08-.443.24-.592.16-.16.357-.24.592-.24.245 0 .443.08.592.24.15.15.224.347.224.592v10.832a.835.835 0 0 1-.224.592.772.772 0 0 1-.592.24.804.804 0 0 1-.592-.24.804.804 0 0 1-.24-.592V14.4h-7.424v4.768c0 .235-.08.432-.24.592a.772.772 0 0 1-.592.24Zm16.913.064c-.863 0-1.626-.187-2.287-.56a4.253 4.253 0 0 1-1.569-1.568c-.373-.672-.56-1.44-.56-2.304 0-.875.187-1.643.56-2.304a4.1 4.1 0 0 1 1.569-1.568c.66-.384 1.424-.576 2.288-.576.853 0 1.61.192 2.271.576a3.989 3.989 0 0 1 1.552 1.568c.385.661.577 1.43.577 2.304 0 .864-.187 1.632-.56 2.304a4.133 4.133 0 0 1-1.552 1.568c-.662.373-1.425.56-2.288.56Zm0-1.44c.555 0 1.046-.128 1.473-.384a2.63 2.63 0 0 0 .991-1.056c.246-.448.369-.965.369-1.552 0-.587-.123-1.104-.368-1.552a2.604 2.604 0 0 0-.992-1.072c-.427-.256-.918-.384-1.473-.384-.554 0-1.045.128-1.471.384a2.714 2.714 0 0 0-1.008 1.072c-.246.448-.369.965-.369 1.552 0 .587.123 1.104.369 1.552.245.448.58.8 1.008 1.056.426.256.917.384 1.472.384Zm18.317 1.392a.835.835 0 0 1-.592-.224.835.835 0 0 1-.224-.592v-4.576c0-.672-.165-1.168-.496-1.488-.33-.33-.762-.496-1.296-.496-.554 0-1.013.192-1.376.576-.352.384-.528.875-.528 1.472h-1.328c0-.693.15-1.301.448-1.824a3.19 3.19 0 0 1 1.248-1.248c.544-.299 1.163-.448 1.856-.448.608 0 1.147.133 1.616.4.47.267.832.661 1.088 1.184.267.512.4 1.136.4 1.872V19.2a.835.835 0 0 1-.224.592c-.149.15-.346.224-.592.224Zm-10.672 0a.835.835 0 0 1-.592-.224.835.835 0 0 1-.224-.592v-7.12c0-.245.075-.443.224-.592a.835.835 0 0 1 .592-.224c.246 0 .443.075.592.224.15.15.224.347.224.592v7.12a.835.835 0 0 1-.224.592c-.149.15-.346.224-.592.224Zm5.344 0a.835.835 0 0 1-.592-.224.835.835 0 0 1-.224-.592v-4.576c0-.672-.165-1.168-.496-1.488-.33-.33-.762-.496-1.296-.496-.554 0-1.013.192-1.376.576-.362.384-.544.875-.544 1.472h-1.008c0-.693.139-1.301.416-1.824.278-.533.662-.95 1.152-1.248.491-.299 1.051-.448 1.68-.448.608 0 1.147.133 1.616.4.47.267.832.661 1.088 1.184.267.512.4 1.136.4 1.872V19.2a.835.835 0 0 1-.224.592c-.149.15-.346.224-.592.224Zm12.824.048c-.864 0-1.627-.187-2.288-.56a4.253 4.253 0 0 1-1.568-1.568c-.373-.672-.56-1.44-.56-2.304 0-.875.187-1.643.56-2.304a4.1 4.1 0 0 1 1.568-1.568c.661-.384 1.424-.576 2.288-.576.853 0 1.61.192 2.272.576a3.989 3.989 0 0 1 1.552 1.568c.384.661.576 1.43.576 2.304 0 .864-.187 1.632-.56 2.304a4.133 4.133 0 0 1-1.552 1.568c-.661.373-1.424.56-2.288.56Zm0-1.44c.555 0 1.045-.128 1.472-.384a2.63 2.63 0 0 0 .992-1.056c.245-.448.368-.965.368-1.552 0-.587-.123-1.104-.368-1.552a2.604 2.604 0 0 0-.992-1.072c-.427-.256-.917-.384-1.472-.384-.555 0-1.045.128-1.472.384a2.714 2.714 0 0 0-1.008 1.072c-.245.448-.368.965-.368 1.552 0 .587.123 1.104.368 1.552.245.448.581.8 1.008 1.056.427.256.917.384 1.472.384Zm10.109-7.36c.16 0 .304.043.432.128s.23.219.304.4l3.296 7.152c.096.213.106.405.032.576a.762.762 0 0 1-.384.368c-.235.107-.438.133-.608.08-.17-.053-.315-.187-.432-.4l-3.008-6.832h.816l-3.104 6.832a.723.723 0 0 1-.432.4c-.181.053-.384.027-.608-.08a.906.906 0 0 1-.432-.384c-.075-.16-.059-.347.048-.56l3.312-7.152c.16-.352.416-.528.768-.528Zm10.079 8.8c-.865 0-1.627-.187-2.288-.56a4.253 4.253 0 0 1-1.569-1.568c-.373-.672-.56-1.44-.56-2.304 0-.875.187-1.643.56-2.304a4.1 4.1 0 0 1 1.569-1.568c.66-.384 1.423-.576 2.287-.576.854 0 1.611.192 2.273.576a3.989 3.989 0 0 1 1.552 1.568c.383.661.576 1.43.576 2.304 0 .864-.187 1.632-.56 2.304a4.133 4.133 0 0 1-1.553 1.568c-.66.373-1.423.56-2.287.56Zm0-1.44c.554 0 1.045-.128 1.471-.384a2.63 2.63 0 0 0 .993-1.056c.245-.448.367-.965.367-1.552 0-.587-.122-1.104-.368-1.552a2.604 2.604 0 0 0-.992-1.072c-.426-.256-.917-.384-1.471-.384-.555 0-1.046.128-1.472.384a2.714 2.714 0 0 0-1.008 1.072c-.246.448-.368.965-.368 1.552 0 .587.122 1.104.367 1.552.246.448.582.8 1.009 1.056.426.256.917.384 1.472.384Zm9.532 1.44c-.672 0-1.274-.101-1.808-.304-.522-.213-.938-.507-1.248-.88a1.992 1.992 0 0 1-.448-1.28c0-.48.134-.89.4-1.232.278-.341.672-.63 1.184-.864.523-.235 1.147-.421 1.872-.56.726-.15 1.216-.325 1.472-.528.256-.213.384-.485.384-.816 0-.341-.17-.592-.512-.752a2.614 2.614 0 0 0-1.184-.256c-.373 0-.746.059-1.12.176a2.448 2.448 0 0 0-.912.512c-.16.15-.336.25-.528.304-.192.053-.346.043-.464-.032a.83.83 0 0 1-.384-.496.641.641 0 0 1 .144-.56c.32-.395.768-.71 1.344-.944a4.97 4.97 0 0 1 1.936-.368c.598 0 1.142.096 1.632.288.491.181.88.453 1.168.816.299.363.448.81.448 1.344 0 .619-.25 1.141-.752 1.568-.501.416-1.264.736-2.288.96-.842.17-1.424.373-1.744.608-.32.224-.474.496-.464.816.011.33.171.587.48.768.31.181.774.272 1.392.272.555 0 1.024-.053 1.408-.16.395-.117.704-.293.928-.528.15-.16.32-.267.512-.32.192-.053.39.005.592.176.182.15.272.32.272.512s-.08.373-.24.544c-.352.352-.842.645-1.472.88a5.92 5.92 0 0 1-2 .336Zm9.398.016c-.736 0-1.397-.155-1.984-.464a3.526 3.526 0 0 1-1.376-1.392c-.33-.608-.496-1.355-.496-2.24v-3.936a.78.78 0 0 1 .224-.576c.16-.16.358-.24.592-.24.235 0 .427.08.576.24.16.15.24.341.24.576v3.936c0 .597.112 1.093.336 1.488.224.384.528.672.912.864.384.181.816.272 1.296.272.459 0 .864-.09 1.216-.272.363-.181.65-.427.864-.736.214-.31.32-.656.32-1.04h1.008c0 .661-.165 1.259-.496 1.792-.32.533-.762.955-1.328 1.264-.554.31-1.19.464-1.904.464Zm3.536-.08a.835.835 0 0 1-.592-.224.835.835 0 0 1-.224-.592v-7.136c0-.245.075-.443.224-.592a.835.835 0 0 1 .592-.224c.246 0 .443.075.592.224.15.15.224.347.224.592v7.136a.835.835 0 0 1-.224.592c-.15.15-.346.224-.592.224Zm9.227 0a.76.76 0 0 1-.56-.224.832.832 0 0 1-.224-.592v-2.112h-2.256v-.208c-.566 0-1.067-.112-1.504-.336a2.533 2.533 0 0 1-1.024-.928c-.246-.395-.368-.853-.368-1.376 0-.565.133-1.072.4-1.52.277-.448.65-.8 1.12-1.056.48-.267 1.029-.4 1.648-.4h2.768c.245 0 .442.075.592.224.149.15.224.347.224.592V19.2a.84.84 0 0 1-.24.576c-.139.15-.331.224-.576.224Zm-5.68-.192c-.171-.15-.251-.315-.241-.496a.869.869 0 0 1 .193-.496l1.952-2.544h2.128l-2.736 3.408c-.182.235-.406.347-.672.336-.267-.01-.475-.08-.624-.208Zm2.912-4.08h1.984v-2.96h-1.984c-.427 0-.8.139-1.12.416a1.29 1.29 0 0 0-.48 1.04c0 .448.16.81.48 1.088.32.277.693.416 1.12.416Z" fill="#3973BF"/></svg>