<svg width="136" height="30" viewBox="0 0 136 30" fill="none" xmlns="http://www.w3.org/2000/svg">
<rect x="0.5" y="0.5" width="135" height="29" rx="14.5" fill="white"/>
<rect x="0.5" y="0.5" width="135" height="29" rx="14.5" stroke="#3973BF"/>
<path d="M12.432 20C12.1973 20 12 19.92 11.84 19.76C11.68 19.6 11.6 19.4027 11.6 19.168V8.336C11.6 8.09067 11.68 7.89333 11.84 7.744C12 7.584 12.1973 7.504 12.432 7.504C12.6773 7.504 12.8747 7.584 13.024 7.744C13.184 7.89333 13.264 8.09067 13.264 8.336V12.928H20.688V8.336C20.688 8.09067 20.768 7.89333 20.928 7.744C21.088 7.584 21.2853 7.504 21.52 7.504C21.7653 7.504 21.9627 7.584 22.112 7.744C22.2613 7.89333 22.336 8.09067 22.336 8.336V19.168C22.336 19.4027 22.2613 19.6 22.112 19.76C21.9627 19.92 21.7653 20 21.52 20C21.2853 20 21.088 19.92 20.928 19.76C20.768 19.6 20.688 19.4027 20.688 19.168V14.4H13.264V19.168C13.264 19.4027 13.184 19.6 13.024 19.76C12.8747 19.92 12.6773 20 12.432 20ZM29.3455 20.064C28.4815 20.064 27.7188 19.8773 27.0575 19.504C26.3962 19.12 25.8735 18.5973 25.4895 17.936C25.1162 17.264 24.9295 16.496 24.9295 15.632C24.9295 14.7573 25.1162 13.9893 25.4895 13.328C25.8735 12.656 26.3962 12.1333 27.0575 11.76C27.7188 11.376 28.4815 11.184 29.3455 11.184C30.1988 11.184 30.9562 11.376 31.6175 11.76C32.2788 12.1333 32.7962 12.656 33.1695 13.328C33.5535 13.9893 33.7455 14.7573 33.7455 15.632C33.7455 16.496 33.5588 17.264 33.1855 17.936C32.8122 18.5973 32.2948 19.12 31.6335 19.504C30.9722 19.8773 30.2095 20.064 29.3455 20.064ZM29.3455 18.624C29.9002 18.624 30.3908 18.496 30.8175 18.24C31.2442 17.984 31.5748 17.632 31.8095 17.184C32.0548 16.736 32.1775 16.2187 32.1775 15.632C32.1775 15.0453 32.0548 14.528 31.8095 14.08C31.5748 13.6213 31.2442 13.264 30.8175 13.008C30.3908 12.752 29.9002 12.624 29.3455 12.624C28.7908 12.624 28.3002 12.752 27.8735 13.008C27.4468 13.264 27.1108 13.6213 26.8655 14.08C26.6202 14.528 26.4975 15.0453 26.4975 15.632C26.4975 16.2187 26.6202 16.736 26.8655 17.184C27.1108 17.632 27.4468 17.984 27.8735 18.24C28.3002 18.496 28.7908 18.624 29.3455 18.624ZM47.6624 20.016C47.4277 20.016 47.2304 19.9413 47.0704 19.792C46.921 19.632 46.8464 19.4347 46.8464 19.2V14.624C46.8464 13.952 46.681 13.456 46.3504 13.136C46.0197 12.8053 45.5877 12.64 45.0544 12.64C44.4997 12.64 44.041 12.832 43.6784 13.216C43.3264 13.6 43.1504 14.0907 43.1504 14.688H41.8224C41.8224 13.9947 41.9717 13.3867 42.2704 12.864C42.569 12.3307 42.985 11.9147 43.5184 11.616C44.0624 11.3173 44.681 11.168 45.3744 11.168C45.9824 11.168 46.521 11.3013 46.9904 11.568C47.4597 11.8347 47.8224 12.2293 48.0784 12.752C48.345 13.264 48.4784 13.888 48.4784 14.624V19.2C48.4784 19.4347 48.4037 19.632 48.2544 19.792C48.105 19.9413 47.9077 20.016 47.6624 20.016ZM36.9904 20.016C36.7557 20.016 36.5584 19.9413 36.3984 19.792C36.249 19.632 36.1744 19.4347 36.1744 19.2V12.08C36.1744 11.8347 36.249 11.6373 36.3984 11.488C36.5584 11.3387 36.7557 11.264 36.9904 11.264C37.2357 11.264 37.433 11.3387 37.5824 11.488C37.7317 11.6373 37.8064 11.8347 37.8064 12.08V19.2C37.8064 19.4347 37.7317 19.632 37.5824 19.792C37.433 19.9413 37.2357 20.016 36.9904 20.016ZM42.3344 20.016C42.0997 20.016 41.9024 19.9413 41.7424 19.792C41.593 19.632 41.5184 19.4347 41.5184 19.2V14.624C41.5184 13.952 41.353 13.456 41.0224 13.136C40.6917 12.8053 40.2597 12.64 39.7264 12.64C39.1717 12.64 38.713 12.832 38.3504 13.216C37.9877 13.6 37.8064 14.0907 37.8064 14.688H36.7984C36.7984 13.9947 36.937 13.3867 37.2144 12.864C37.4917 12.3307 37.8757 11.9147 38.3664 11.616C38.857 11.3173 39.417 11.168 40.0464 11.168C40.6544 11.168 41.193 11.3013 41.6624 11.568C42.1317 11.8347 42.4944 12.2293 42.7504 12.752C43.017 13.264 43.1504 13.888 43.1504 14.624V19.2C43.1504 19.4347 43.0757 19.632 42.9264 19.792C42.777 19.9413 42.5797 20.016 42.3344 20.016ZM55.158 20.064C54.294 20.064 53.5313 19.8773 52.87 19.504C52.2087 19.12 51.686 18.5973 51.302 17.936C50.9287 17.264 50.742 16.496 50.742 15.632C50.742 14.7573 50.9287 13.9893 51.302 13.328C51.686 12.656 52.2087 12.1333 52.87 11.76C53.5313 11.376 54.294 11.184 55.158 11.184C56.0113 11.184 56.7687 11.376 57.43 11.76C58.0913 12.1333 58.6087 12.656 58.982 13.328C59.366 13.9893 59.558 14.7573 59.558 15.632C59.558 16.496 59.3713 17.264 58.998 17.936C58.6247 18.5973 58.1073 19.12 57.446 19.504C56.7847 19.8773 56.022 20.064 55.158 20.064ZM55.158 18.624C55.7127 18.624 56.2033 18.496 56.63 18.24C57.0567 17.984 57.3873 17.632 57.622 17.184C57.8673 16.736 57.99 16.2187 57.99 15.632C57.99 15.0453 57.8673 14.528 57.622 14.08C57.3873 13.6213 57.0567 13.264 56.63 13.008C56.2033 12.752 55.7127 12.624 55.158 12.624C54.6033 12.624 54.1127 12.752 53.686 13.008C53.2593 13.264 52.9233 13.6213 52.678 14.08C52.4327 14.528 52.31 15.0453 52.31 15.632C52.31 16.2187 52.4327 16.736 52.678 17.184C52.9233 17.632 53.2593 17.984 53.686 18.24C54.1127 18.496 54.6033 18.624 55.158 18.624ZM69.3469 20C69.1122 20 68.9149 19.9253 68.7549 19.776C68.6055 19.616 68.5309 19.4187 68.5309 19.184V12.064C68.5309 11.8187 68.6055 11.6213 68.7549 11.472C68.9149 11.3227 69.1122 11.248 69.3469 11.248C69.5922 11.248 69.7842 11.3227 69.9229 11.472C70.0615 11.6213 70.1309 11.8187 70.1309 12.064V19.184C70.1309 19.4187 70.0615 19.616 69.9229 19.776C69.7842 19.9253 69.5922 20 69.3469 20ZM62.7709 20C62.5362 20 62.3442 19.9253 62.1949 19.776C62.0562 19.616 61.9869 19.4187 61.9869 19.184V12.064C61.9869 11.8187 62.0562 11.6213 62.1949 11.472C62.3442 11.3227 62.5362 11.248 62.7709 11.248C63.0162 11.248 63.2135 11.3227 63.3629 11.472C63.5122 11.6213 63.5869 11.8187 63.5869 12.064V19.184C63.5869 19.4187 63.5122 19.616 63.3629 19.776C63.2135 19.9253 63.0162 20 62.7709 20ZM63.3789 16.176V14.736H68.9949V16.176H63.3789ZM76.9861 20.064C76.1221 20.064 75.3595 19.8773 74.6981 19.504C74.0368 19.12 73.5141 18.5973 73.1301 17.936C72.7568 17.264 72.5701 16.496 72.5701 15.632C72.5701 14.7573 72.7568 13.9893 73.1301 13.328C73.5141 12.656 74.0368 12.1333 74.6981 11.76C75.3595 11.376 76.1221 11.184 76.9861 11.184C77.8395 11.184 78.5968 11.376 79.2581 11.76C79.9195 12.1333 80.4368 12.656 80.8101 13.328C81.1941 13.9893 81.3861 14.7573 81.3861 15.632C81.3861 16.496 81.1995 17.264 80.8261 17.936C80.4528 18.5973 79.9355 19.12 79.2741 19.504C78.6128 19.8773 77.8501 20.064 76.9861 20.064ZM76.9861 18.624C77.5408 18.624 78.0315 18.496 78.4581 18.24C78.8848 17.984 79.2155 17.632 79.4501 17.184C79.6955 16.736 79.8181 16.2187 79.8181 15.632C79.8181 15.0453 79.6955 14.528 79.4501 14.08C79.2155 13.6213 78.8848 13.264 78.4581 13.008C78.0315 12.752 77.5408 12.624 76.9861 12.624C76.4315 12.624 75.9408 12.752 75.5141 13.008C75.0875 13.264 74.7515 13.6213 74.5061 14.08C74.2608 14.528 74.1381 15.0453 74.1381 15.632C74.1381 16.2187 74.2608 16.736 74.5061 17.184C74.7515 17.632 75.0875 17.984 75.5141 18.24C75.9408 18.496 76.4315 18.624 76.9861 18.624ZM84.631 20C84.3963 20 84.199 19.9253 84.039 19.776C83.8897 19.616 83.815 19.4187 83.815 19.184V12.064C83.815 11.8187 83.8897 11.6213 84.039 11.472C84.199 11.3227 84.3963 11.248 84.631 11.248C84.9723 11.248 85.2603 11.4133 85.495 11.744L88.807 16.528L92.119 11.744C92.3537 11.4133 92.6417 11.248 92.983 11.248C93.2283 11.248 93.4257 11.3227 93.575 11.472C93.7243 11.6213 93.799 11.8187 93.799 12.064V19.184C93.799 19.4187 93.7243 19.616 93.575 19.776C93.4257 19.9253 93.2283 20 92.983 20C92.7483 20 92.551 19.9253 92.391 19.776C92.2417 19.616 92.167 19.4187 92.167 19.184V13.36L92.583 13.488L89.639 17.648C89.3723 18.0213 89.0843 18.208 88.775 18.208C88.4657 18.1973 88.183 18.0107 87.927 17.648L85.031 13.488L85.447 13.36V19.184C85.447 19.4187 85.3723 19.616 85.223 19.776C85.0737 19.9253 84.8763 20 84.631 20ZM100.354 20.08C99.6184 20.08 98.957 19.9253 98.3704 19.616C97.7944 19.296 97.3357 18.832 96.9944 18.224C96.6637 17.616 96.4984 16.8693 96.4984 15.984V12.048C96.4984 11.8133 96.573 11.6213 96.7224 11.472C96.8824 11.312 97.0797 11.232 97.3144 11.232C97.549 11.232 97.741 11.312 97.8904 11.472C98.0504 11.6213 98.1304 11.8133 98.1304 12.048V15.984C98.1304 16.5813 98.2424 17.0773 98.4664 17.472C98.6904 17.856 98.9944 18.144 99.3784 18.336C99.7624 18.5173 100.194 18.608 100.674 18.608C101.133 18.608 101.538 18.5173 101.89 18.336C102.253 18.1547 102.541 17.9093 102.754 17.6C102.968 17.2907 103.074 16.944 103.074 16.56H104.082C104.082 17.2213 103.917 17.8187 103.586 18.352C103.266 18.8853 102.824 19.3067 102.258 19.616C101.704 19.9253 101.069 20.08 100.354 20.08ZM103.89 20C103.656 20 103.458 19.9253 103.298 19.776C103.149 19.616 103.074 19.4187 103.074 19.184V12.048C103.074 11.8027 103.149 11.6053 103.298 11.456C103.458 11.3067 103.656 11.232 103.89 11.232C104.136 11.232 104.333 11.3067 104.482 11.456C104.632 11.6053 104.706 11.8027 104.706 12.048V19.184C104.706 19.4187 104.632 19.616 104.482 19.776C104.333 19.9253 104.136 20 103.89 20ZM114.685 19.808C114.546 19.936 114.349 20 114.093 20C113.847 19.9893 113.655 19.9147 113.517 19.776L109.629 15.6L113.293 11.504C113.431 11.3547 113.623 11.2693 113.869 11.248C114.125 11.2267 114.322 11.28 114.461 11.408C114.621 11.5573 114.711 11.728 114.733 11.92C114.754 12.1013 114.695 12.2667 114.557 12.416L111.661 15.52L114.733 18.816C114.871 18.9547 114.941 19.12 114.941 19.312C114.941 19.4933 114.855 19.6587 114.685 19.808ZM108.349 20.016C108.114 20.016 107.927 19.9413 107.789 19.792C107.65 19.632 107.581 19.4347 107.581 19.2V12.064C107.581 11.8187 107.65 11.6213 107.789 11.472C107.927 11.3227 108.114 11.248 108.349 11.248C108.594 11.248 108.791 11.3227 108.941 11.472C109.101 11.6213 109.181 11.8187 109.181 12.064V14.736H111.229V16.24H109.181V19.2C109.181 19.4347 109.101 19.632 108.941 19.792C108.791 19.9413 108.594 20.016 108.349 20.016ZM119.791 20.064C119.012 20.064 118.314 19.872 117.695 19.488C117.076 19.0933 116.586 18.5653 116.223 17.904C115.871 17.232 115.695 16.4747 115.695 15.632C115.695 14.7893 115.887 14.032 116.271 13.36C116.666 12.688 117.194 12.16 117.855 11.776C118.527 11.3813 119.279 11.184 120.111 11.184C120.943 11.184 121.69 11.3813 122.351 11.776C123.012 12.16 123.535 12.688 123.919 13.36C124.314 14.032 124.511 14.7893 124.511 15.632H123.887C123.887 16.4747 123.706 17.232 123.343 17.904C122.991 18.5653 122.506 19.0933 121.887 19.488C121.268 19.872 120.57 20.064 119.791 20.064ZM120.111 18.624C120.655 18.624 121.14 18.496 121.567 18.24C121.994 17.9733 122.33 17.616 122.575 17.168C122.82 16.7093 122.943 16.1973 122.943 15.632C122.943 15.056 122.82 14.544 122.575 14.096C122.33 13.6373 121.994 13.28 121.567 13.024C121.14 12.7573 120.655 12.624 120.111 12.624C119.578 12.624 119.092 12.7573 118.655 13.024C118.228 13.28 117.887 13.6373 117.631 14.096C117.386 14.544 117.263 15.056 117.263 15.632C117.263 16.1973 117.386 16.7093 117.631 17.168C117.887 17.616 118.228 17.9733 118.655 18.24C119.092 18.496 119.578 18.624 120.111 18.624ZM123.695 20.016C123.46 20.016 123.263 19.9413 123.103 19.792C122.954 19.632 122.879 19.4347 122.879 19.2V16.752L123.183 15.056L124.511 15.632V19.2C124.511 19.4347 124.431 19.632 124.271 19.792C124.122 19.9413 123.93 20.016 123.695 20.016Z" fill="#3973BF"/>
</svg>
