<svg width="50" height="50" fill="none" xmlns="http://www.w3.org/2000/svg"><g clip-path="url(#a)"><mask id="b" style="mask-type:luminance" maskUnits="userSpaceOnUse" x="0" y="0" width="50" height="50"><path d="M50 0H0v50h50V0Z" fill="#fff"/></mask><g mask="url(#b)" stroke="#BF3991" stroke-width="2" stroke-linejoin="round"><path d="M30 12.208C30 9.332 27.761 7 25 7s-5 2.332-5 5.208v14.584C20 29.668 22.239 32 25 32s5-2.332 5-5.208V12.208Z"/><path d="M36 25v2.167C36 33.15 31.299 38 25.5 38S15 33.15 15 27.167V25M25.5 38v6m0 0H19m6.5 0H32" stroke-linecap="round"/></g></g><defs><clipPath id="a"><path fill="#fff" d="M0 0h50v50H0z"/></clipPath></defs></svg>