<svg width="50" height="50" fill="none" xmlns="http://www.w3.org/2000/svg"><g clip-path="url(#a)"><path d="M50 0H0v50h50V0Z" fill="#fff"/><path d="M18.75 41.666c0 2.302-2.798 4.167-6.25 4.167s-6.25-1.865-6.25-4.167c0-2.3 2.798-4.166 6.25-4.166s6.25 1.865 6.25 4.166Zm0 0V20.833m0 0V13.96c0-.876.548-1.659 1.371-1.958l18.75-6.818a2.083 2.083 0 0 1 2.796 1.958V12.5M18.75 20.833 41.667 12.5m0 25v-25M35.417 41.667c3.451 0 6.25-1.866 6.25-4.167 0-2.301-2.799-4.166-6.25-4.166-3.452 0-6.25 1.865-6.25 4.166s2.798 4.167 6.25 4.167Z" stroke="#BF3991" stroke-width="2" stroke-linejoin="round"/></g><defs><clipPath id="a"><path fill="#fff" d="M0 0h50v50H0z"/></clipPath></defs></svg>