<svg width="26" height="30" fill="none" xmlns="http://www.w3.org/2000/svg"><path fill-rule="evenodd" clip-rule="evenodd" d="M17.333.5C22.12.5 26 4.395 26 9.2c0 4.696-3.706 8.523-8.342 8.694l-.325.006h-7.222v2.9h5.778c.798 0 1.444.65 1.444 1.45 0 .8-.646 1.45-1.444 1.45H10.11v4.35c0 .8-.647 1.45-1.444 1.45-.798 0-1.445-.65-1.445-1.45V23.7H1.444C.647 23.7 0 23.05 0 22.25c0-.8.647-1.45 1.444-1.45h5.778v-2.9H1.444C.647 17.9 0 17.25 0 16.45c0-.744.558-1.356 1.276-1.44l.168-.01h5.778V1.95c0-.8.647-1.45 1.445-1.45h8.666Zm0 2.9h-7.222V15h7.222c3.191 0 5.778-2.597 5.778-5.8 0-3.106-2.432-5.642-5.49-5.793l-.288-.007Z" fill="#fff"/></svg>