<svg width="40" height="44" fill="none" xmlns="http://www.w3.org/2000/svg"><path fill-rule="evenodd" clip-rule="evenodd" d="M26.667 0C34.03 0 40 5.91 40 13.2c0 7.125-5.701 12.93-12.834 13.19l-.5.01h-11.11v4.4h8.888c1.228 0 2.223.985 2.223 2.2 0 1.215-.995 2.2-2.223 2.2h-8.888v6.6c0 1.215-.995 2.2-2.223 2.2a2.211 2.211 0 0 1-2.222-2.2v-6.6H2.222A2.211 2.211 0 0 1 0 33c0-1.215.995-2.2 2.222-2.2h8.89v-4.4h-8.89A2.211 2.211 0 0 1 0 24.2c0-1.128.858-2.058 1.963-2.185l.26-.015h8.888V2.2c0-1.215.995-2.2 2.222-2.2h13.334Zm0 4.4H15.556V22h11.11c4.91 0 8.89-3.94 8.89-8.8 0-4.713-3.743-8.56-8.446-8.79l-.443-.01Z" fill="#fff"/></svg>