<svg width="578" height="600" fill="none" xmlns="http://www.w3.org/2000/svg"><path d="M251.598 321.84c23.341-30.507 51.691-59.066 89.559-65.29 38.207-6.278 76.715 8.543 106.645 33.046 28.444 23.286 41.564 58.157 48.819 94.226 7.747 38.515 13.614 79.772-7.093 113.207-22.022 35.557-60.85 60.147-102.477 63.71-39.621 3.392-73.328-22.039-105.064-45.944-31.243-23.534-65.608-48.525-71.699-87.201-6.116-38.83 17.4-74.504 41.31-105.754Z" stroke="#3F3F3F" stroke-opacity=".1"/><path d="M83.407 131.338C129.008 71.741 184.404 15.958 258.436 3.84c74.693-12.225 150.003 16.789 208.552 64.714 55.641 45.545 81.334 113.715 95.563 184.22 15.193 75.284 26.713 155.927-13.733 221.248-43.014 69.469-118.903 117.481-200.286 124.396-77.463 6.581-143.397-43.163-205.476-89.922C81.94 462.463 14.721 413.579 2.766 337.98c-12.005-75.899 33.93-145.594 80.641-206.642Z" stroke="#3F3F3F" stroke-opacity=".1"/></svg>