<svg width="320" height="285" fill="none" xmlns="http://www.w3.org/2000/svg"><path clip-rule="evenodd" d="M-7.596-7.326C10.828-31.404 33.21-53.94 63.126-58.833c30.183-4.935 60.618 6.793 84.28 26.161 22.487 18.407 32.874 45.953 38.628 74.443 6.144 30.42 10.804 63.006-5.537 89.398-17.378 28.067-48.041 47.463-80.928 50.252-31.303 2.655-57.95-17.449-83.039-36.346-24.7-18.605-51.866-38.361-56.701-68.908-4.856-30.67 13.702-58.828 32.575-83.493Z" stroke="#3F3F3F" stroke-opacity=".1"/><path clip-rule="evenodd" d="M-140.106-157.7c36.015-47.066 79.777-91.113 138.297-100.644 59.044-9.616 118.6 13.357 164.915 51.262 44.016 36.024 64.369 89.907 75.661 145.63 12.057 59.498 21.213 123.23-10.724 174.822-33.965 54.869-93.931 92.763-158.268 98.178-61.236 5.154-113.392-34.193-162.498-71.18-48.344-36.412-101.515-75.081-111.013-134.826-9.535-59.984 26.738-115.029 63.63-163.242Z" stroke="#3F3F3F" stroke-opacity=".1"/></svg>