<svg width="50" height="50" fill="none" xmlns="http://www.w3.org/2000/svg"><g clip-path="url(#a)" stroke="#3973BF" stroke-width="2" stroke-linecap="round" stroke-linejoin="round"><path d="M5.04 26.125v-1.352a22 22 0 1 1 2.593 10.454"/><path d="M8.61 26.117H1.39L5 30.477l3.61-4.36ZM27.672 39.844h-.907a14.757 14.757 0 1 1 7.032-1.766"/><path d="M27.672 37.469v4.843l2.922-2.421-2.922-2.422ZM27.008 26.469a1.469 1.469 0 1 0 0-2.938 1.469 1.469 0 0 0 0 2.938ZM27.008 23.531V7.617M28.484 25h10.094"/></g><defs><clipPath id="a"><path fill="#fff" d="M0 0h50v50H0z"/></clipPath></defs></svg>