<svg width="27" height="15" fill="none" xmlns="http://www.w3.org/2000/svg"><path d="M16.35 7.215c-.494-.177-.494-.854-.525-1.326-.123-1.68.494-4.244-.247-5.334-.524-.65-3.055-.59-4.597-.501-.433.06-.957.147-1.327.324-.37.178-.74.472-.74.737 0 .383.925.324 1.264.825.37.531.37 1.68.37 2.623 0 1.09-.185 2.535-.648 2.594-.71.029-1.11-.65-1.48-1.15a19.471 19.471 0 0 1-2.038-3.36c-.277-.62-.432-1.297-.833-1.562C4.932.672 3.821.642 2.741.672 1.753.7.333.583.056 1.143c-.216.619.247 1.208.494 1.71 1.265 2.623 2.622 4.922 4.289 7.103 1.543 2.034 2.993 3.655 5.832 4.51.803.235 4.32.913 5.03 0 .246-.354.185-1.15.309-1.74.123-.59.277-1.179.864-1.208.493-.03.77.383 1.08.678.34.325.617.59.864.885.586.56 1.203 1.326 1.944 1.621 1.018.413 2.592.295 4.073.236 1.204-.03 2.068-.265 2.16-.943.063-.531-.555-1.297-.926-1.74-.926-1.09-1.357-1.414-2.407-2.417-.463-.442-1.05-.914-1.05-1.444-.03-.324.247-.619.494-.943 1.08-1.533 2.16-2.623 3.148-4.215.278-.472.926-1.562.68-2.093-.278-.59-1.821-.413-2.778-.413-1.234 0-2.839-.089-3.148.147-.587.383-.833 1.003-1.11 1.592-.618 1.357-1.451 2.741-2.315 3.773-.31.354-.895 1.09-1.235.972l.001.001Z" fill="#fff"/></svg>