<svg width="21" height="21" fill="none" xmlns="http://www.w3.org/2000/svg"><path fill-rule="evenodd" clip-rule="evenodd" d="M16.612 14.827c-.253.716-1.259 1.309-2.061 1.482-.55.117-1.265.21-3.678-.79C8.163 14.395 4.4 10.395 4.4 7.734c0-1.355.78-2.933 2.147-2.933.657 0 .802.013 1.018.532.253.61.87 2.117.944 2.271.304.634-.309 1.004-.753 1.556-.141.166-.302.345-.123.654.179.303.796 1.309 1.704 2.116 1.171 1.045 2.122 1.378 2.462 1.52.253.105.555.08.74-.117.234-.253.525-.673.821-1.087.21-.296.475-.333.753-.228.188.065 2.577 1.174 2.678 1.352.074.129.074.74-.179 1.456ZM10.502 0h-.005C4.708 0 0 4.71 0 10.5c0 2.296.74 4.426 2 6.154L.69 20.555l4.036-1.289A10.419 10.419 0 0 0 10.502 21C16.291 21 21 16.29 21 10.5S16.29 0 10.502 0Z" fill="#fff"/></svg>