<svg width="50" height="50" fill="none" xmlns="http://www.w3.org/2000/svg"><path d="M30.375 6c-.975 0-1.625.63-1.625 1.577v15.77c0 1.734-1.462 3.153-3.25 3.153s-3.25-1.42-3.25-3.154V7.576C22.25 6.632 21.6 6 20.625 6S19 6.63 19 7.577v15.77c0 2.995 2.113 5.36 4.875 6.15v11.668c-.975.474-1.625 1.577-1.625 2.681 0 1.735 1.462 3.154 3.25 3.154s3.25-1.42 3.25-3.154c0-1.104-.65-2.207-1.625-2.68v-11.67c2.762-.63 4.875-3.154 4.875-6.15V7.576C32 6.632 31.35 6 30.375 6ZM36.5 11c-.9 0-1.5.6-1.5 1.5v6c0 .9.6 1.5 1.5 1.5s1.5-.6 1.5-1.5v-6c0-.9-.6-1.5-1.5-1.5ZM42.5 6c-.9 0-1.5.633-1.5 1.583v15.834c0 .95.6 1.583 1.5 1.583s1.5-.633 1.5-1.583V7.583C44 6.633 43.4 6 42.5 6ZM13.5 11c-.9 0-1.5.6-1.5 1.5v6c0 .9.6 1.5 1.5 1.5s1.5-.6 1.5-1.5v-6c0-.9-.6-1.5-1.5-1.5ZM7.5 6C6.6 6 6 6.633 6 7.583v15.834C6 24.367 6.6 25 7.5 25S9 24.367 9 23.417V7.583C9 6.633 8.4 6 7.5 6Z" fill="#9474C0"/></svg>