<svg width="50" height="50" fill="none" xmlns="http://www.w3.org/2000/svg"><path d="M24.5 26a1.5 1.5 0 1 0 0-3 1.5 1.5 0 0 0 0 3Z" fill="#9474C0"/><path d="M25 3C12.9 3 3 12.9 3 25s9.9 22 22 22 22-9.9 22-22S37.1 3 25 3ZM9.286 26.571c-.943 0-1.572-.628-1.572-1.571 0-9.586 7.7-17.286 17.286-17.286.943 0 1.571.629 1.571 1.572 0 .943-.628 1.571-1.571 1.571A14.084 14.084 0 0 0 10.857 25c0 .943-.628 1.571-1.571 1.571Zm4.714 0c-.943 0-1.571-.628-1.571-1.571 0-6.914 5.657-12.571 12.571-12.571.943 0 1.571.628 1.571 1.571s-.628 1.571-1.571 1.571c-5.186 0-9.429 4.243-9.429 9.429 0 .943-.628 1.571-1.571 1.571Zm11 6.286c-4.4 0-7.857-3.457-7.857-7.857S20.6 17.143 25 17.143 32.857 20.6 32.857 25 29.4 32.857 25 32.857Z" fill="#9474C0"/></svg>