<svg width="50" height="50" fill="none" xmlns="http://www.w3.org/2000/svg"><path d="M25.118 32.86c.469 0 .938-.158 1.25-.629L46.68 5.521c.469-.628.469-1.728-.312-2.2-.625-.47-1.72-.47-2.188.315L35.274 15.42l-1.562-7.542c-.625-2.828-3.125-4.87-5.938-4.87h-5.312c-2.813 0-5.312 1.885-5.937 4.713L9.18 39.93c-.469 1.728 0 3.456 1.094 4.87 1.093 1.414 2.656 2.2 4.375 2.2h20.78c1.72 0 3.438-.786 4.532-2.2 1.093-1.414 1.406-3.142 1.093-4.87L37.15 24.69c-.156-.786-1.094-1.415-1.875-1.1-.781.157-1.406 1.1-1.094 1.885l2.344 9.113H13.556l5.937-25.924c.313-1.414 1.563-2.357 2.813-2.357h5.312c1.406 0 2.656.943 2.813 2.357l2.187 10.212-8.75 11.627c-.469.628-.469 1.728.313 2.2.312 0 .625.156.937.156Z" fill="#9474C0"/><path d="M23.5 12h3c.9 0 1.5-.6 1.5-1.5S27.4 9 26.5 9h-3c-.9 0-1.5.6-1.5 1.5s.6 1.5 1.5 1.5ZM23.5 17h3c.9 0 1.5-.6 1.5-1.5s-.6-1.5-1.5-1.5h-3c-.9 0-1.5.6-1.5 1.5s.6 1.5 1.5 1.5ZM23.5 22h3c.9 0 1.5-.6 1.5-1.5s-.6-1.5-1.5-1.5h-3c-.9 0-1.5.6-1.5 1.5s.6 1.5 1.5 1.5Z" fill="#9474C0"/></svg>