<svg width="50" height="50" fill="none" xmlns="http://www.w3.org/2000/svg"><path d="M45.37 5.315C45.053 5 44.58 5 44.107 5L18.877 9.73c-.788.158-1.262.79-1.262 1.578v23.338c-1.261-.788-2.996-1.261-4.73-1.261C8.469 33.385 5 36.223 5 39.692 5 43.162 8.47 46 12.885 46c4.415 0 7.884-2.839 7.884-6.308V20.454l22.077-4.1v13.561c-1.261-.788-2.996-1.261-4.73-1.261-4.416 0-7.885 2.838-7.885 6.308 0 3.469 3.469 6.307 7.884 6.307 4.416 0 7.885-2.838 7.885-6.307V6.576c0-.473-.158-.946-.63-1.262ZM20.77 17.3v-4.73l22.076-4.1v4.73L20.77 17.3Z" fill="#9474C0"/></svg>