<svg width="50" height="50" fill="none" xmlns="http://www.w3.org/2000/svg"><path d="M33.171 3c-5.657 0-10.685 3.3-12.728 8.486l-2.829 6.6c-.943 2.2-3.143 3.614-5.5 3.614C7.086 21.857 3 25.943 3 30.971V45.43C3 46.37 3.629 47 4.571 47H45.43C46.37 47 47 46.371 47 45.429v-28.6C47 9.129 40.871 3 33.171 3Zm10.686 40.857H6.143v-6.286h1.571v3.143c0 .943.629 1.572 1.572 1.572.943 0 1.571-.629 1.571-1.572v-3.143h1.572v3.143c0 .943.628 1.572 1.571 1.572s1.571-.629 1.571-1.572v-3.143h3.143v3.143c0 .943.629 1.572 1.572 1.572.943 0 1.571-.629 1.571-1.572v-3.143h1.572v3.143c0 .943.628 1.572 1.571 1.572s1.571-.629 1.571-1.572v-3.143h1.572v3.143c0 .943.628 1.572 1.571 1.572s1.572-.629 1.572-1.572v-3.143h3.143v3.143c0 .943.628 1.572 1.571 1.572s1.571-.629 1.571-1.572v-3.143h1.572v3.143c0 .943.628 1.572 1.571 1.572s1.572-.629 1.572-1.572v-3.143h1.571v6.286Z" fill="#9474C0"/></svg>